<svg id="Lag_1" data-name="Lag 1" xmlns="http://www.w3.org/2000/svg" width="314.52" height="734.95" viewBox="0 0 314.52 734.95"><defs><style>.cls-1,.cls-8{fill:#fce5cd;}.cls-1,.cls-9{stroke:#fff;}.cls-1,.cls-6,.cls-9{stroke-miterlimit:10;}.cls-2{fill:#f49da7;}.cls-3{fill:#020202;}.cls-4{fill:#050505;}.cls-5{fill:#8c7a50;}.cls-6,.cls-9{fill:none;}.cls-6{stroke:#fffdfb;}.cls-7{fill:#beb693;}.cls-10{fill:#77726d;}.cls-11{fill:#0d0d0c;}.cls-12{fill:#fff;}</style></defs><title>bondedreng</title><path class="cls-1" d="M595,253.5s-52,76,21,146c0,0,100,78,169-35,0,0,29-48-9-111Z" transform="translate(-531 -155)"/><circle class="cls-2" cx="230" cy="159.75" r="18.96"/><circle class="cls-2" cx="74" cy="159.75" r="18.96"/><circle class="cls-3" cx="177.25" cy="163.25" r="9.25"/><circle class="cls-3" cx="130.25" cy="163.25" r="9.25"/><path class="cls-4" d="M605,334s17,66,79,65,77-65,77-65-18,61-77,62S605,334,605,334Z" transform="translate(-531 -155)"/><polygon class="cls-5" points="75.07 236.81 6.36 469.27 45.48 477.26 86.55 243.84 75.07 236.81"/><polygon class="cls-5" points="231.25 239.8 308.56 469.59 268.84 478.36 219.74 247.02 231.25 239.8"/><path class="cls-6" d="M655.25,315.25" transform="translate(-531 -155)"/><path class="cls-6" d="M656.75,315.75" transform="translate(-531 -155)"/><path class="cls-7" d="M617.1,399.28,566,650,806,648.15,752.21,401.5S682.52,450.27,617.1,399.28Z" transform="translate(-531 -155)"/><path class="cls-8" d="M802,629.33,835.79,614s19.43,36.4,3.38,50.77c0,0-17.74,10.54-25.34-19.16C813.83,645.61,806.22,660.94,802,629.33Z" transform="translate(-531 -155)"/><path class="cls-8" d="M571,630l-31.06-13s-17.86,30.76-3.11,42.9c0,0,16.3,8.9,23.29-16.19C560.13,643.71,567.12,656.66,571,630Z" transform="translate(-531 -155)"/><polygon class="cls-8" points="170.49 494.44 213 698 238.5 492.83 170.49 494.44"/><polygon class="cls-8" points="61.49 494.44 104 698 129.5 492.83 61.49 494.44"/><polygon class="cls-5" points="114.45 613.93 109 622 105 616 100 623 94 615 88.34 623 61 494 129 493 114.45 613.93"/><polygon class="cls-5" points="196.07 616.94 203 612 208 623 214 612 221 617 223.47 613.78 238 493 170 494 196.07 616.94"/><path class="cls-5" d="M645,255l-11,34,26-34,18,44,4-44s34,20,30,33,7-27,7-27,23,42,26,38,0-22,0-22,39,16,56,53l4-37,11,28s7-37-11-66l12,10s-8-42-38-47l26-5s-62-50-89-26l34-16s-33-11-43,6c0,0,3-12-15-22l-1,23s-49-17-74,16l17,3s-52,19-64,64l21-9s-46,38-41,49l26-17s-24,21-22,37l22-18.22V330S595,272,645,255Z" transform="translate(-531 -155)"/><path class="cls-9" d="M656.14,316.55" transform="translate(-531 -155)"/><path class="cls-9" d="M656.14,316.55" transform="translate(-531 -155)"/><path class="cls-10" d="M612.81,622.73c.09,0,.26-.1.21-.13l-.32.1Z" transform="translate(-531 -155)"/><path class="cls-10" d="M613.26,622.24a2,2,0,0,0-.72.22c.31-.08.19,0,.56-.12.05,0-.07.11-.18.15.08,0,0,.09.16,0s.2-.22,0-.2A.84.84,0,0,1,613.26,622.24Z" transform="translate(-531 -155)"/><path class="cls-10" d="M612.05,618.25l0,0A.07.07,0,0,0,612.05,618.25Z" transform="translate(-531 -155)"/><path class="cls-10" d="M611.11,615.86s0,0,.08,0A.09.09,0,0,0,611.11,615.86Z" transform="translate(-531 -155)"/><path class="cls-10" d="M611.25,615.31v0S611.27,615.3,611.25,615.31Z" transform="translate(-531 -155)"/><path class="cls-10" d="M612.05,618.25l.07-.11C612,618.19,612.06,618.21,612.05,618.25Z" transform="translate(-531 -155)"/><path class="cls-10" d="M612.3,622h.09l0,0Z" transform="translate(-531 -155)"/><path class="cls-10" d="M612.77,619.17v0l.13,0Z" transform="translate(-531 -155)"/><path class="cls-10" d="M613.17,619.94a2,2,0,0,0-.37.13.44.44,0,0,1,.19,0Z" transform="translate(-531 -155)"/><path class="cls-10" d="M613.27,621.4h0Z" transform="translate(-531 -155)"/><path class="cls-10" d="M612.57,618.58l.09,0Z" transform="translate(-531 -155)"/><path class="cls-10" d="M598.59,598.87l0,0Z" transform="translate(-531 -155)"/><polygon class="cls-10" points="68.13 442.24 68.15 442.24 68.28 442.15 68.13 442.24"/><path class="cls-10" d="M611.21,614.43h0S611.23,614.43,611.21,614.43Z" transform="translate(-531 -155)"/><path class="cls-10" d="M607.5,608c-.18.2-.35,0-.53.29C607.07,608.24,607.41,608.19,607.5,608Z" transform="translate(-531 -155)"/><path class="cls-10" d="M612.33,622l0,0S612.31,622,612.33,622Z" transform="translate(-531 -155)"/><path class="cls-10" d="M607,608.31h0l0,0Z" transform="translate(-531 -155)"/><path class="cls-10" d="M610.21,612.85l-.1.07Z" transform="translate(-531 -155)"/><path class="cls-10" d="M610.49,614.26l0,0A.07.07,0,0,0,610.49,614.26Z" transform="translate(-531 -155)"/><path class="cls-10" d="M609.53,612.4s0-.05,0-.06l0,0S609.55,612.36,609.53,612.4Z" transform="translate(-531 -155)"/><path class="cls-10" d="M609.17,611.74l0,0h0Z" transform="translate(-531 -155)"/><path class="cls-10" d="M600,600.6l.19-.17C600,600.55,599.9,600.5,600,600.6Z" transform="translate(-531 -155)"/><path class="cls-10" d="M612.45,622l-.12,0,0,0Z" transform="translate(-531 -155)"/><path class="cls-10" d="M607.55,613.41l0-.12A.18.18,0,0,0,607.55,613.41Z" transform="translate(-531 -155)"/><path class="cls-10" d="M602.94,605h0S602.91,605,602.94,605Z" transform="translate(-531 -155)"/><path class="cls-10" d="M607.33,613a.62.62,0,0,0,.14-.15l-.07,0Z" transform="translate(-531 -155)"/><path class="cls-10" d="M600.18,600.43h0Z" transform="translate(-531 -155)"/><path class="cls-10" d="M599.19,600.18c.06.1.33-.17.51-.27.16,0-.19.21-.32.35.13,0,.44-.13.46-.07a.45.45,0,0,1-.13.09c.29-.1.16.2.52.08l-.07.06a4.64,4.64,0,0,1,.41-.3s.24-.06.06.1c0,0-.09,0-.16.06l.12,0c-.26.24-.14,0-.35.16.15,0,.46,0,.42.07-.27.21-.2-.08-.39.17l0-.17c-.39.38,0-.08-.43.32,0,.19.24,0,.25.23.18-.08.22-.17.4-.25.41,0-.6.63-.14.51.21-.09.57-.32.45-.1l-.34.18c.06.15.5-.24.38,0-.14.06-.17,0-.2,0-.19.26.22-.06.27,0l-.27.21c.14.1.44.12.59.23a.63.63,0,0,0-.26.18c.27.09.24.43.19.72l.29-.09s-.09.1-.15.12.16-.1.28-.13-.1.15-.2.17c.29,0,.69.06.51.37l-.09,0c0,.17.58-.21.42,0h-.06c0,.29.43.4.17.81.38-.2,0,.33.49,0-.16.29-.27.31-.32.6,0,.06.36-.13.45-.1l-.26.17.32-.09-.28.24h.1s.09-.12.16-.17,0,.33-.18.42l.35.07a.56.56,0,0,1-.25.06c.34-.06-.26.19,0,.14a1,1,0,0,1,.21-.12c-.13.15-.05.27.07.31l-.19.1c.05.18.29.28.4.45,0-.12.37-.29.43-.26l-.26.19c.19-.07.07-.12.32-.18,0,.09-.29.24-.4.26l.15,0c-.08.06-.14.06-.24.12.19-.07-.19.31.14.17l-.08.06c.11.18.25.2.35.33.24-.14.22-.06.44-.13,0,.15-.13.39,0,.5s.22-.1.39-.14c-.22.14-.12.25-.32.28a.75.75,0,0,0,.46.26c.08-.07.1-.12.18-.15s0,.14-.15.19h0c.46,0-.34.88.22.79h0l.35,0c0,.11-.2,0-.3.19.48,0,.13.34.46.36-.58.5.3.42,0,.82l.15-.1c.18,0-.06.1-.07.16s.11-.13.21-.15c.4.26.21.9.28,1.35,0,.16.85-.37.58,0l-.32.11c.51.09.31.58.75.7-.08,0-.16.07-.18,0-.18.17.11.22.28.13,0,.05-.15.09-.22.17s.35,0,.16.15a.15.15,0,0,1-.1,0c.12,0,.07.19.29,0-.06.17.22.14.12.3.3-.09,0,.25.36.06-.4.21-.22.35,0,.32-.13,0-.09.12-.28.19,0,.07.16.1.35,0-.41.39.53.08,0,.48a2.66,2.66,0,0,1,.79.4c-.4.2-.16-.2-.57,0,.26.11.67,0,.67.28,0,.08-.19.06-.27.08.27.11.15.39.46.45a.27.27,0,0,1-.13,0s0,.11.16,0h-.07c.24-.19.62-.15.77-.21-.55.21,0,.24-.75.48a.51.51,0,0,0,.27-.08c0,.05-.09.1-.24.13.16.07.33-.07.39,0a2.31,2.31,0,0,1-.24.08c.2,0,.4-.06.37.07s-.12.07-.13,0c.11.15.6,0,.52.3-.41.14-.1.12-.43.3l.15,0,.14-.12c0,.09.31,0,.24.17h-.17l.14.13.08-.15c.21,0,.42-.22.38-.06,0,0,0,.09-.14.23h0c.13,0,.26,0,.21.08s-.38.17-.44.21c.3-.1.17.16.5.06a1.38,1.38,0,0,0-.29.12l.24-.08a.43.43,0,0,1-.23.16c0,.14.41-.24.29,0,0,0-.06,0-.1,0,0,.18.28.2.22.38-.32.2-.14-.07-.4.11.15.15.59.19.59.4l0-.05c.49-.2-.17.25.09.23a.83.83,0,0,0-.22.08c0,.16.23.2.47.31l-.13,0c-.08.12,0,.22,0,.32.13,0,.14,0,.3-.09-.59.57.59.29.1.77,0,0-.14,0-.13,0l.2.13c.2-.11.12-.08.26-.19s.26,0,.28,0c-.18,0-.34.15-.44.24l.2-.09c-.33.27.43-.18.24.07l-.11,0c.08,0,.25,0,.24.07-.23.13-.14,0-.34.09,0,.07.53-.06.31.12-.08,0-.1,0-.19,0-.25.2-.18.18-.2.25h0l-.07.18.06-.07c.68-.19.2.14.67.08-.45.05-.24.08-.52.19-.06.07-.13.15-.21.17.25,0-.13.18.23.11-.09,0,0,.07-.21.15.1,0,.15-.09.26-.13.36,0-.25.44.24.43.24.07.55,0,.76,0a.58.58,0,0,1-.34.1c-.1.13-.05.18.08.2a.66.66,0,0,0-.24.13s.34-.1.24,0a3.41,3.41,0,0,1-.38.1c.11,0,.31,0,.42.06a.83.83,0,0,1-.37.08.55.55,0,0,0,.49.06l.07-.09s-.21.11-.26.1c-.22,0,0-.13.13-.17l.08,0c.5-.28-.17-.16-.18-.27l.4-.12-.36,0c.09-.06.3-.17.38-.15.16-.15-.16,0,0-.16l.07,0-.14,0c.09,0,.26-.13.23-.06.17-.22-.37-.08-.1-.25h0c-.2-.12-.29.11-.67.12l.65-.39-.29.11s0-.07.12-.11c-.22,0-.12.06-.31.11.22-.2-.22-.18.21-.4-.23.06-.13.15-.32.13.47-.24-.13-.07.06-.24s.16,0,.35-.13c-.44.14,0-.19-.09-.22-.33.14-.2-.08-.36-.14.11,0,.09-.29.16-.45l.06,0c-.34.13-.33,0-.43,0a.88.88,0,0,1,.4-.11l0-.07a.32.32,0,0,1-.24,0l.26-.1c-.06-.09-.38-.06-.27-.26-.24.1-.6.39-.82.34a1.29,1.29,0,0,1,.4-.16s-.12,0-.08,0l.24,0c.07-.1-.19.05-.19,0,.18-.08.11-.09.26-.15s-.06.07,0,.06a.46.46,0,0,1,.21-.26c-.1.05-.24.11-.28.08s.2-.13.27-.23c-.14,0,0-.09-.3,0,0,0,.11-.09.18-.14-.14,0-.14-.22-.4,0v0h0c-.34,0,0-.41-.2-.52l.09,0c-.15,0-.16-.19-.38-.16,0,0,.13-.14.24-.18-.1,0-.2,0-.11-.18.19,0,.13-.09.15,0,0-.13.16-.22-.13-.21.25-.07.25-.21.16-.22l-.13.15c-.06,0-.06-.09-.06-.14l.31-.12c.27-.37-.79-.05-.25-.5-.23,0-.1.18-.36.25,0-.11.38-.41.37-.44.11-.2-.49.1-.44-.09-.1.07-.38.22-.52.18s.39-.33.51-.31,0,0,0,.06a.21.21,0,0,0,.22-.07l-.11,0c.09-.1,0-.22.2-.27a.19.19,0,0,0-.22.13c.1-.19-.08-.18,0-.35,0,0-.17.13-.17.11,0-.24-.24,0-.35-.07.13-.15.4-.17.2-.22.07-.13.27-.16.38-.17-.26,0,0-.27,0-.35h.11a.1.1,0,0,1-.09-.07l-.2.14c0-.05,0-.08.1-.12-.16,0-.34.2-.56.23.09-.1-.18-.08.09-.23,0,.19.27-.16.38-.06s-.06,0,0-.09a.13.13,0,0,1,.08,0c.18-.26-.35.1-.41,0,.17-.06.28-.18.24-.19s-.25.16-.4.17c.08-.15-.14,0-.15-.1l0,.08c-.17.06-.17,0-.25,0,.12-.07.11,0,.16,0-.31.07.21-.3,0-.3.08-.1.29-.16.35-.23-.26,0,.16-.23-.07-.25-.2.14-.14.12-.39.15l.25.11-.37,0c0,.06.19,0,.18.1a.42.42,0,0,0-.31.13c.28-.24-.26-.05-.09-.25l.53-.27c.16-.25-.39-.1-.35-.34l-.06.1c-.22.09-.08-.09-.2-.1a1.19,1.19,0,0,0,.32-.23c-.13.07-.05-.13-.41,0l.19-.2c0-.19-.58.1-.59-.06.21-.06.3-.19.49-.17,0,0,0-.1-.13,0,.1-.08-.3,0-.16-.13-.09,0-.27.11-.28.06l.09,0c-.09,0-.16,0-.33.13.47-.42-.24-.36.16-.72a1,1,0,0,1-.29-.23c.05,0,.09,0,.08,0,.1-.21-.54.2-.43,0s.19,0,.27-.11c.56-.33-.17-.12.12-.4h0c.16-.18-.31-.05-.33-.19l.09,0a.86.86,0,0,1-.65-.08c.24-.09.15,0,.36-.16-.06,0-.36.21-.47.15a1.75,1.75,0,0,1,.41-.37l.06.09c.29-.22-.08-.11-.05-.19l.14-.07c-.12-.12-.47.07-.53-.09l-.09.07c-.39.11.15-.18-.15-.12l.33-.22a2,2,0,0,1-.56-.07,2.29,2.29,0,0,1,.67-.06.24.24,0,0,0-.31-.1s.15,0,.1,0c-.31.09-.49.07-.54,0,.68-.36,0-.38.48-.75-.36-.05-.12-.44-.28-.64-.47.38-.05-.06-.57.26-.06,0-.07-.06,0-.08l.22-.34c.13-.13.15,0,.26-.09s.2-.18.29-.34c-.18.13-.29.12-.26,0l-.19.23c-.37,0,.36-.4,0-.39l.2,0c-.15,0-.17-.31-.64-.14.05-.05.18-.15.24-.14-.05-.23-.71-.17-.54-.47l.14-.06c-.06,0-.28.08-.18,0s.14-.06.13-.08-.28,0-.24-.05l.17,0c.05-.29-.53-.08-.71-.19a.73.73,0,0,0,.42-.56l.05,0c-.09-.25-.54-.18-.81-.29.33-.38-.09-.53,0-.88a.63.63,0,0,1-.35.16c0-.1-.34,0,0-.18v0c.31-.25.16-.29.12-.37l-.45.27c.52-.61-.57-.37-.06-.84-.14,0-.18,0-.32,0l.24-.15a.46.46,0,0,0-.2-.38l.19-.08c0-.1-.76.33-.83.25l.34-.26c-.11-.16.1-.52-.33-.47.05,0,.16-.09.19-.08s0-.45-.42-.1c.31-.21-.08-.18-.27-.18l.24-.14c-.34.12-.43.18-.58.13,0,0,.17-.14.13-.07.07-.16-.26.08-.2-.09l.17-.06c0-.09-.11,0-.31,0s0-.19.16-.35c-.13.07-.34.14-.31.06a.4.4,0,0,1,.17-.08c.07-.24-.41,0-.24-.27a.6.6,0,0,0,.13-.11c.07.11.11.21.09.21.21-.14.19-.26.53-.38-.21,0-.64.15-.6,0l.07-.06h0s0,0-.07,0,0-.09,0-.11c.17-.13,0-.16,0-.21-.23.16-.23.08-.39.26,0,0,0,0,.06,0h0l.09.1c-.14,0-.27.08-.17-.06l-.42.19c.28-.28.38-.51.57-.67-.22,0-.3-.26-.79,0-.08,0,.09-.13.15-.19s.07,0,.14,0c-.16,0-.2-.19-.51,0,.07-.19.32-.14.18-.24l.1,0c.3-.59-1.06.13-.64-.59a.27.27,0,0,1-.08.11c0-.51-.72-.48-.52-1.1,0-.15-.18,0-.36,0l.23-.2-.35.11c-.3,0,.43-.66-.08-.55l-.15.14c0-.08-.23-.12,0-.25,0,0-.18.11-.12,0l.13-.1h-.33c0-.18.52-.35.42-.54a1,1,0,0,0-.57.18s0,.12-.16.22h-.11a2.82,2.82,0,0,0-1,.84l.3-.07-.16.16-.07-.07c-.14.17,0,.09.16,0a.73.73,0,0,0-.17.19l.43-.17c-.14.12-.32.17-.36.29.2-.08.3-.28.46-.29-.14.17-.29.26-.1.21a.47.47,0,0,1-.22.12c.15,0,.14.09.36,0-.18.2.17.12-.19.38.1,0,.34-.12.39-.09-.49.23.09.18-.38.49.43-.22.33.09.62,0,0,0-.11,0-.09,0s-.09.18-.14.27a2.07,2.07,0,0,1,.69-.27c-.26.29-.41.22-.69.46.26-.19.35-.06.55-.24a1.28,1.28,0,0,1-.3.33c.41-.27.1,0,.38-.12-.14.22-.36.29-.18.29A.46.46,0,0,1,599.19,600.18Zm2.17,1.65h0l0,0Zm.13.18a.22.22,0,0,0,0-.08c.08-.06.16-.11.17-.09S601.54,601.94,601.49,602Zm1.35-1.48c.05,0,0,0,0,.08l-.06,0,0,0Z" transform="translate(-531 -155)"/><path class="cls-10" d="M602.5,600.69h0l0,.05.08,0Z" transform="translate(-531 -155)"/><path class="cls-10" d="M612,618.3h0l0,0Z" transform="translate(-531 -155)"/><polygon class="cls-10" points="71.69 449.82 71.75 449.79 71.69 449.8 71.69 449.82"/><path class="cls-10" d="M611.65,619.8l-.06,0Z" transform="translate(-531 -155)"/><path class="cls-10" d="M611.81,620.31l-.06.11A.36.36,0,0,0,611.81,620.31Z" transform="translate(-531 -155)"/><path class="cls-10" d="M611.85,620.73l.11,0h0Z" transform="translate(-531 -155)"/><path class="cls-10" d="M608.82,615.14h0C608.74,615.12,608.77,615.13,608.82,615.14Z" transform="translate(-531 -155)"/><path class="cls-10" d="M610.25,616.54h-.15S610.11,616.61,610.25,616.54Z" transform="translate(-531 -155)"/><polygon class="cls-10" points="76.55 458.42 76.56 458.42 76.55 458.41 76.55 458.42"/><path class="cls-10" d="M610.07,616.46c0,.05,0,.08,0,.08S610.12,616.47,610.07,616.46Z" transform="translate(-531 -155)"/><path class="cls-10" d="M612.42,622.37v0l0,0Z" transform="translate(-531 -155)"/><path class="cls-10" d="M612.46,622.37h0S612.49,622.36,612.46,622.37Z" transform="translate(-531 -155)"/><path class="cls-10" d="M612.58,622.39h-.08S612.5,622.42,612.58,622.39Z" transform="translate(-531 -155)"/><path class="cls-10" d="M612.33,621.83l-.1,0Z" transform="translate(-531 -155)"/><path class="cls-10" d="M612.24,621.69s-.16.17-.08.2l.08,0C612.08,621.9,612.41,621.66,612.24,621.69Z" transform="translate(-531 -155)"/><path class="cls-10" d="M613.13,620.57l0,.16c.09-.07.21-.15.26-.11C613.59,620.33,613.16,620.75,613.13,620.57Z" transform="translate(-531 -155)"/><path class="cls-10" d="M613.1,620.12c.08,0,.14-.06.2-.09C613.19,620,613.16,620,613.1,620.12Z" transform="translate(-531 -155)"/><path class="cls-10" d="M611.82,617.34l.23-.1C612,617.2,612,617.28,611.82,617.34Z" transform="translate(-531 -155)"/><polygon class="cls-10" points="79.38 462.39 79.26 462.51 79.48 462.43 79.38 462.39"/><polygon class="cls-10" points="80.87 461.29 80.92 461.3 80.79 461.25 80.87 461.29"/><path class="cls-10" d="M609.45,611.74l-.27.16C609.25,611.91,609.57,611.75,609.45,611.74Z" transform="translate(-531 -155)"/><path class="cls-10" d="M608.11,609.95c.13-.1.18-.2,0-.16C608.14,609.84,608.06,609.95,608.11,609.95Z" transform="translate(-531 -155)"/><polygon class="cls-10" points="74.14 448.96 74.26 448.94 74.14 448.92 74.14 448.96"/><path class="cls-10" d="M625.89,613.45c.09,0,.26-.12.2-.15l-.31.11Z" transform="translate(-531 -155)"/><path class="cls-10" d="M626.26,612.83a1.47,1.47,0,0,0-.71.25c.31-.08.2,0,.57-.12.06,0,0,.14-.16.18.08,0,0,.11.17,0s.16-.27-.07-.26A.62.62,0,0,1,626.26,612.83Z" transform="translate(-531 -155)"/><path class="cls-10" d="M624.13,607.65l0,.05A.07.07,0,0,0,624.13,607.65Z" transform="translate(-531 -155)"/><path class="cls-10" d="M622.61,604.54a.07.07,0,0,0,.08,0S622.64,604.52,622.61,604.54Z" transform="translate(-531 -155)"/><path class="cls-10" d="M622.64,603.84v0S622.66,603.84,622.64,603.84Z" transform="translate(-531 -155)"/><path class="cls-10" d="M624.13,607.65l0-.13C624.08,607.57,624.13,607.6,624.13,607.65Z" transform="translate(-531 -155)"/><path class="cls-10" d="M625.2,612.51h.1l-.05,0Z" transform="translate(-531 -155)"/><path class="cls-10" d="M625.09,608.87v0l.13,0Z" transform="translate(-531 -155)"/><path class="cls-10" d="M625.68,609.88s-.25.09-.37.14a.35.35,0,0,1,.2,0Z" transform="translate(-531 -155)"/><path class="cls-10" d="M626.1,611.76h0Z" transform="translate(-531 -155)"/><path class="cls-10" d="M624.75,608.1l.08-.06Z" transform="translate(-531 -155)"/><path class="cls-10" d="M605.12,582l0,0S605.11,582,605.12,582Z" transform="translate(-531 -155)"/><polygon class="cls-10" points="74.37 425.11 74.39 425.12 74.52 425.02 74.37 425.11"/><path class="cls-10" d="M622.41,602.72h0S622.44,602.73,622.41,602.72Z" transform="translate(-531 -155)"/><path class="cls-10" d="M617,594.34c-.15.23-.37,0-.51.32C616.59,594.59,617,594.55,617,594.34Z" transform="translate(-531 -155)"/><path class="cls-10" d="M625.22,612.47l0,0S625.2,612.46,625.22,612.47Z" transform="translate(-531 -155)"/><path class="cls-10" d="M616.5,594.66h0v0Z" transform="translate(-531 -155)"/><path class="cls-10" d="M621,600.65l-.09.08Z" transform="translate(-531 -155)"/><path class="cls-10" d="M621.6,602.46v-.06A.08.08,0,0,0,621.6,602.46Z" transform="translate(-531 -155)"/><path class="cls-10" d="M620.16,600s0-.06,0-.07l0,0S620.18,600,620.16,600Z" transform="translate(-531 -155)"/><path class="cls-10" d="M619.64,599.17l0,0,0,0Z" transform="translate(-531 -155)"/><path class="cls-10" d="M607.08,584.34a1.79,1.79,0,0,1,.17-.19C607.1,584.28,607,584.21,607.08,584.34Z" transform="translate(-531 -155)"/><path class="cls-10" d="M625.34,612.44c-.07,0-.1,0-.12,0l0,0Z" transform="translate(-531 -155)"/><path class="cls-10" d="M618.24,601.14l0-.16A.31.31,0,0,0,618.24,601.14Z" transform="translate(-531 -155)"/><path class="cls-10" d="M611.33,590.06h0S611.3,590.07,611.33,590.06Z" transform="translate(-531 -155)"/><path class="cls-10" d="M617.92,600.6a.53.53,0,0,0,.12-.18l-.07,0Z" transform="translate(-531 -155)"/><path class="cls-10" d="M607.25,584.15h0Z" transform="translate(-531 -155)"/><path class="cls-10" d="M606.09,583.73c.09.12.33-.17.52-.27.19.08-.16.23-.28.4.15,0,.47-.11.51,0a.33.33,0,0,1-.12.1c.31-.08.23.27.6.16l-.06.07a3.45,3.45,0,0,1,.39-.32s.26,0,.09.12c0,0-.1,0-.17,0h.13c-.24.26-.15,0-.36.15.17,0,.5,0,.49.14-.26.22-.24-.13-.4.17v-.21c-.35.42,0-.1-.42.34.05.23.29.08.34.32.18-.08.21-.18.39-.26.45,0-.54.71,0,.61.22-.09.57-.33.49-.07l-.34.19c.09.19.51-.24.44.09-.14.06-.2-.05-.22,0-.16.3.23-.05.3,0l-.26.22c.18.15.52.19.72.35-.09,0-.2.08-.25.19.32.15.36.55.37.92l.3-.08s-.08.12-.14.13.15-.11.28-.13-.08.17-.18.19c.32,0,.78.16.65.52l-.1,0c0,.21.6-.2.47.09h-.06c.11.37.57.54.37,1,.37-.2.06.4.55.08-.12.34-.24.35-.23.71,0,.08.37-.12.47-.07l-.25.18.34-.08-.26.27.12,0s.07-.14.14-.19,0,.41-.1.5l.41.12a.47.47,0,0,1-.26.05c.36,0-.25.21.08.18a.78.78,0,0,1,.21-.13.27.27,0,0,0,.14.4l-.19.1c.1.24.38.37.54.61,0-.14.34-.33.42-.28l-.25.21c.2-.07.05-.14.32-.19,0,.11-.27.27-.39.28l.17,0a2.06,2.06,0,0,1-.24.13c.2-.07-.15.37.19.23l-.08.06c.16.23.32.27.46.45.24-.15.23,0,.46-.12,0,.19-.06.47.07.62s.22-.1.39-.14c-.21.15-.07.31-.29.32a1.16,1.16,0,0,0,.56.37c.07-.09.09-.14.17-.17s0,.17-.13.23h0c.51.07-.18,1.07.42,1h0l.39.09c0,.13-.2,0-.28.21.52,0,.21.44.59.5-.53.58.42.55.16,1l.14-.11c.18,0,0,.12,0,.19s.09-.15.2-.17c.5.37.42,1.15.6,1.73.08.21.84-.39.63.07l-.32.11c.57.16.46.76,1,1-.08,0-.16.07-.18,0-.16.2.16.29.33.19,0,.07-.14.11-.21.19s.38,0,.2.2a.13.13,0,0,1-.1,0c.13,0,.12.25.33.06,0,.21.27.2.19.39.31-.09,0,.31.4.11-.39.23-.16.43.07.41-.13,0-.08.15-.26.21.06.1.19.14.38,0-.35.46.59.14.06.6a3.82,3.82,0,0,1,.94.57c-.39.22-.21-.27-.61,0,.31.16.73.11.79.41,0,.1-.19.06-.27.08.31.16.25.51.59.61a.23.23,0,0,1-.13,0s0,.14.18,0l-.07,0c.22-.22.64-.14.78-.21-.55.22,0,.3-.71.55a.4.4,0,0,0,.27-.08c0,.06-.07.12-.23.15.19.1.34-.06.42.09a1.74,1.74,0,0,1-.25.08c.21,0,.42,0,.42.12s-.12.08-.14,0c.15.19.65.1.63.43-.41.15-.08.15-.4.35l.17.07.13-.14c.06.11.35.08.29.23h-.18l.18.17.06-.19c.23,0,.4-.24.4,0,0,0,.06.11-.1.28h0c.13,0,.27,0,.24.12s-.37.19-.43.24c.3-.1.22.21.55.12a1,1,0,0,0-.28.14l.25-.08c0,.09-.07.12-.21.19,0,.18.39-.28.31,0,0,0-.06,0-.11,0,0,.23.34.27.32.5-.3.23-.16-.1-.41.11.2.21.67.28.72.56v-.06c.48-.22-.13.3.15.3a.62.62,0,0,0-.22.08c0,.2.29.27.57.43l-.14,0c-.06.15.07.28.08.42.14,0,.15,0,.3-.09-.51.68.7.41.27,1,0,0-.15,0-.13,0l.24.18c.19-.13.11-.1.24-.23s.27,0,.3,0c-.19,0-.33.18-.42.28s.14-.06.2-.1c-.3.32.42-.2.27.1l-.11,0c.09,0,.26,0,.27.11-.22.15-.15,0-.34.09.06.09.55,0,.36.17-.09,0-.12-.07-.21-.07-.23.24-.15.22-.16.31h0l0,.23.05-.08c.68-.2.24.19.73.14-.47,0-.24.09-.51.22-.05.08-.1.19-.19.21.26,0-.1.22.27.16-.08,0,0,.09-.19.18.12.07.14-.1.25-.15.38,0-.17.55.35.57.27.11.58,0,.81.1a.45.45,0,0,1-.34.11c-.08.16,0,.23.13.27a.49.49,0,0,0-.22.15c.06.06.34-.11.26.05a2.59,2.59,0,0,1-.39.1c.12,0,.33.05.46.1-.14.1-.26.06-.37.08a.56.56,0,0,0,.53.1l.05-.11s-.2.12-.25.12c-.23,0,0-.17.1-.22l.09,0c.48-.32-.21-.22-.25-.36l.4-.13-.38,0c.08-.08.28-.2.37-.17.14-.19-.17,0,0-.2a.09.09,0,0,1,.07,0l-.16,0c.09,0,.25-.15.23-.07.13-.27-.41-.12-.16-.33h0c-.24-.16-.28.12-.69.11L626,611l-.28.12s0-.09.11-.13c-.23,0-.11.08-.31.12.19-.24-.28-.25.14-.5-.23.07-.1.19-.31.14.45-.28-.15-.1,0-.31s.18.07.34-.14c-.44.15,0-.25-.14-.29-.32.16-.23-.12-.42-.21.11,0,0-.37.08-.56l.06,0c-.34.15-.35,0-.47-.09a.69.69,0,0,1,.4-.11l-.05-.09a.3.3,0,0,1-.26,0l.25-.1c-.08-.12-.42-.1-.34-.35-.23.11-.56.46-.8.38.12-.07.32-.19.4-.17s-.13,0-.09-.06l.24,0c.05-.12-.19.05-.21,0,.17-.09.1-.11.24-.18s0,.09,0,.08a.44.44,0,0,1,.17-.32c-.1.06-.23.13-.28.09s.19-.16.24-.28c-.14,0-.06-.11-.32,0,0,0,.1-.11.16-.16-.15,0-.2-.29-.43-.06v0h0c-.37-.07-.09-.52-.32-.67l.09,0c-.17-.07-.21-.25-.45-.24,0,0,.11-.18.22-.22-.12-.06-.22,0-.15-.24.2,0,.12-.11.17,0,0-.17.13-.27-.18-.27.25-.08.23-.25.13-.27l-.11.18a.26.26,0,0,1-.1-.19l.31-.13c.21-.45-.86-.13-.38-.65-.24,0-.06.22-.34.29,0-.14.32-.5.3-.53.07-.25-.51.09-.49-.14-.09.08-.36.26-.52.19s.35-.39.48-.36,0,.06,0,.07a.17.17,0,0,0,.22-.07l-.11,0c.07-.12,0-.27.16-.33-.15,0-.19.06-.21.15.06-.24-.13-.24-.12-.45,0,.06-.15.15-.16.12,0-.3-.25,0-.39-.12.11-.18.39-.18.17-.26.05-.16.26-.18.37-.19-.28,0,0-.34,0-.44l.13,0a.15.15,0,0,1-.12-.09l-.18.16c0-.06,0-.1.08-.15-.16,0-.32.23-.56.25.07-.12-.21-.11,0-.29,0,.24.26-.18.4,0,0,0-.07,0-.06-.11a.1.1,0,0,1,.08,0c.14-.32-.35.1-.45-.09.17-.07.27-.21.22-.22s-.24.18-.39.19c.05-.19-.16-.07-.18-.14l0,.1c-.17.07-.18,0-.28-.06.12-.08.12,0,.16,0-.32.07.16-.37-.09-.38.07-.12.28-.17.33-.27-.28,0,.12-.27-.13-.32-.18.16-.13.14-.39.16l.29.16-.39,0c0,.07.22.08.21.14-.21,0-.16,0-.31.14.25-.28-.3-.09-.16-.33l.51-.3c.12-.31-.44-.15-.45-.45l0,.12c-.22.09-.11-.12-.24-.15a.92.92,0,0,0,.3-.27c-.12.08-.09-.17-.44,0l.16-.23c0-.24-.61.08-.65-.12.22-.06.29-.21.49-.17,0-.06,0-.13-.15-.06.09-.1-.32,0-.2-.17-.09,0-.27.12-.3,0l.08-.05c-.08.05-.18,0-.33.14.42-.5-.34-.47,0-.9a1.71,1.71,0,0,1-.36-.32c.05,0,.08-.05.08,0,.06-.25-.54.2-.48-.09.22-.26.21,0,.27-.12.54-.37-.21-.17,0-.49h.05c.13-.21-.35-.1-.4-.27l.08-.05a1,1,0,0,1-.73-.16c.24-.09.16,0,.36-.17-.07,0-.34.24-.48.15a1.39,1.39,0,0,1,.36-.43l.09.11c.26-.25-.11-.15-.1-.25l.14-.07c-.16-.16-.49,0-.6-.17l-.09.08c-.4.1.13-.21-.19-.16l.31-.24a2.2,2.2,0,0,1-.63-.14,2.08,2.08,0,0,1,.72,0,.31.31,0,0,0-.37-.16c.05,0,.15,0,.12.05q-.48.12-.6-.1c.66-.39-.07-.47.36-.9-.4-.1-.22-.56-.45-.83-.43.43-.07-.08-.57.28-.08,0-.09-.08-.06-.11l.17-.4c.12-.15.15,0,.27-.09-.06-.17.18-.2.25-.39-.17.14-.3.12-.28,0l-.16.27c-.41,0,.31-.46-.09-.49l.2,0c-.16,0-.26-.4-.74-.23,0-.06.17-.18.24-.15-.11-.3-.81-.28-.69-.64l.14-.06c-.07,0-.29.07-.2-.07s.14-.06.13-.09-.3,0-.27-.09l.18,0c0-.36-.59-.15-.82-.3a.67.67,0,0,0,.35-.66l.05,0c-.15-.32-.64-.28-1-.45.28-.44-.22-.67-.18-1.09a.48.48,0,0,1-.35.17c0-.11-.37,0,0-.22v0c.29-.27.12-.34.06-.45l-.44.29c.45-.7-.71-.51-.25-1-.15,0-.21-.06-.36,0l.23-.16a.81.81,0,0,0-.3-.5l.2-.07c-.07-.13-.77.32-.86.22l.32-.28c-.15-.21,0-.63-.47-.61.05,0,.16-.1.19-.07s0-.55-.49-.17c.3-.22-.13-.24-.34-.25l.24-.15c-.36.12-.44.17-.61.1,0-.05.16-.16.13-.08,0-.19-.27.07-.24-.14l.18-.06c-.06-.12-.13-.06-.34,0s-.09-.24.1-.41c-.13.08-.34.14-.33,0a.31.31,0,0,1,.17-.08c0-.29-.46-.07-.33-.36a.45.45,0,0,0,.12-.12c.1.15.17.27.15.27.21-.15.16-.29.51-.41-.22,0-.68.12-.67-.07l.06-.07h0s0,0-.09,0,0-.1,0-.14c.16-.14,0-.2,0-.26-.22.17-.24.07-.37.28,0,0,0,0,.07,0h0l.12.13c-.15,0-.28.07-.2-.09l-.42.19c.26-.31.31-.59.49-.76-.26-.08-.39-.35-.89-.14-.09,0,.08-.15.13-.22s.08,0,.15,0c-.18,0-.26-.26-.57-.06,0-.22.32-.14.15-.27l.11,0c.21-.69-1.16,0-.85-.8a.23.23,0,0,1-.07.12c-.06-.62-.91-.68-.82-1.41,0-.18-.2,0-.4,0l.22-.21-.37.09c-.34,0,.35-.76-.21-.68l-.14.15c0-.1-.29-.17-.1-.31,0,0-.19.11-.13,0l.12-.1-.36,0c0-.22.51-.37.36-.61a.89.89,0,0,0-.6.15s0,.15-.13.25l-.12,0c-.37.28-.79.52-.9.9l.32-.05-.14.18-.09-.1c-.12.19.06.11.19.08a.57.57,0,0,0-.15.21l.45-.15c-.13.13-.33.17-.34.32.21-.07.28-.31.46-.3-.12.19-.27.28-.07.24a.36.36,0,0,1-.22.12c.16,0,.18.13.4,0-.16.22.22.17-.13.44.1,0,.36-.1.42-.06-.5.22.15.24-.32.56.43-.22.39.15.71.13,0,0-.11,0-.1,0s-.06.21-.1.32c.32-.23.48-.16.72-.25-.22.33-.41.22-.67.48.25-.2.38,0,.56-.22a1,1,0,0,1-.27.37c.4-.29.12,0,.4-.11-.11.25-.34.31-.13.33C606.31,583.73,606.09,583.73,606.09,583.73Zm2.8,2.29h0l-.06,0Zm.18.23a.4.4,0,0,0-.07-.11c.07-.07.16-.12.17-.09S609.11,586.17,609.07,586.25Zm1.19-1.67c.06,0,0,.06,0,.1l-.08,0,0,0Z" transform="translate(-531 -155)"/><path class="cls-10" d="M609.91,584.74h0l0,.06.08,0Z" transform="translate(-531 -155)"/><path class="cls-10" d="M624.11,607.71h0l0,0Z" transform="translate(-531 -155)"/><polygon class="cls-10" points="80.03 434.88 80.08 434.83 80.02 434.85 80.03 434.88"/><path class="cls-10" d="M624,609.61l-.05.05Z" transform="translate(-531 -155)"/><path class="cls-10" d="M624.31,610.26l0,.13A.4.4,0,0,0,624.31,610.26Z" transform="translate(-531 -155)"/><path class="cls-10" d="M624.44,610.81l.11,0h0Z" transform="translate(-531 -155)"/><path class="cls-10" d="M620,603.44h0C619.9,603.41,619.93,603.43,620,603.44Z" transform="translate(-531 -155)"/><path class="cls-10" d="M621.84,605.33h-.16C621.68,605.38,621.7,605.41,621.84,605.33Z" transform="translate(-531 -155)"/><polygon class="cls-10" points="87.25 446.16 87.25 446.15 87.24 446.14 87.25 446.16"/><path class="cls-10" d="M621.63,605.22c0,.07,0,.09.05.11S621.68,605.23,621.63,605.22Z" transform="translate(-531 -155)"/><path class="cls-10" d="M625.4,613v0l0,0Z" transform="translate(-531 -155)"/><path class="cls-10" d="M625.44,613h0S625.47,613,625.44,613Z" transform="translate(-531 -155)"/><path class="cls-10" d="M625.57,613l-.09,0S625.49,613,625.57,613Z" transform="translate(-531 -155)"/><path class="cls-10" d="M625.19,612.25l-.09,0Z" transform="translate(-531 -155)"/><path class="cls-10" d="M625.06,612.07c0,.06-.13.22,0,.25l.08,0C624.94,612.33,625.24,612,625.06,612.07Z" transform="translate(-531 -155)"/><path class="cls-10" d="M625.77,610.68v.2c.08-.08.19-.18.25-.12C626.21,610.41,625.84,610.92,625.77,610.68Z" transform="translate(-531 -155)"/><path class="cls-10" d="M625.64,610.11c.09.06.14-.07.2-.1C625.72,610,625.69,610,625.64,610.11Z" transform="translate(-531 -155)"/><path class="cls-10" d="M623.69,606.47l.23-.11C623.85,606.31,623.84,606.41,623.69,606.47Z" transform="translate(-531 -155)"/><polygon class="cls-10" points="91.16 451.43 91.05 451.57 91.28 451.49 91.16 451.43"/><polygon class="cls-10" points="92.52 450.14 92.57 450.15 92.42 450.08 92.52 450.14"/><path class="cls-10" d="M619.94,599.19l-.26.18C619.76,599.39,620.07,599.22,619.94,599.19Z" transform="translate(-531 -155)"/><path class="cls-10" d="M618.09,596.82c.12-.11.16-.24,0-.2C618.11,596.69,618,596.81,618.09,596.82Z" transform="translate(-531 -155)"/><polygon class="cls-10" points="82.55 434.06 82.67 434.05 82.53 434.01 82.55 434.06"/><path class="cls-10" d="M635.7,588.85c0-.09-.14-.25-.18-.18l.13.31Z" transform="translate(-531 -155)"/><path class="cls-10" d="M635,588.57a1.21,1.21,0,0,0,.28.7c-.1-.31,0-.21-.13-.58,0-.07.16,0,.21.14,0-.09.13,0,.06-.19s-.32-.12-.31.13A.5.5,0,0,1,635,588.57Z" transform="translate(-531 -155)"/><path class="cls-10" d="M628.77,591.73h0Z" transform="translate(-531 -155)"/><path class="cls-10" d="M625,593.77a.07.07,0,0,0,0-.09S625,593.75,625,593.77Z" transform="translate(-531 -155)"/><path class="cls-10" d="M624.17,593.83h0S624.17,593.8,624.17,593.83Z" transform="translate(-531 -155)"/><path class="cls-10" d="M628.77,591.73l-.15,0C628.67,591.79,628.71,591.74,628.77,591.73Z" transform="translate(-531 -155)"/><path class="cls-10" d="M634.57,589.75a.21.21,0,0,0,0-.11l0,.06Z" transform="translate(-531 -155)"/><path class="cls-10" d="M630.26,590.52l0,0,0-.13Z" transform="translate(-531 -155)"/><path class="cls-10" d="M631.47,589.73s.1.25.15.36c0-.11-.05-.17,0-.2Z" transform="translate(-531 -155)"/><path class="cls-10" d="M633.7,589v0Z" transform="translate(-531 -155)"/><path class="cls-10" d="M629.33,591l-.06-.08Z" transform="translate(-531 -155)"/><path class="cls-10" d="M594.9,612.8l0,0S594.89,612.8,594.9,612.8Z" transform="translate(-531 -155)"/><polygon class="cls-10" points="61.76 457.35 61.77 457.32 61.7 457.18 61.76 457.35"/><path class="cls-10" d="M622.83,594.2h0S622.84,594.17,622.83,594.2Z" transform="translate(-531 -155)"/><path class="cls-10" d="M612.26,600.52c.24.15,0,.39.28.53C612.47,601,612.5,600.58,612.26,600.52Z" transform="translate(-531 -155)"/><path class="cls-10" d="M634.52,589.74l0,0S634.51,589.76,634.52,589.74Z" transform="translate(-531 -155)"/><path class="cls-10" d="M612.55,601.05h0Z" transform="translate(-531 -155)"/><path class="cls-10" d="M620.25,595.91l.09.09A.37.37,0,0,0,620.25,595.91Z" transform="translate(-531 -155)"/><path class="cls-10" d="M622.44,595.09h0Z" transform="translate(-531 -155)"/><path class="cls-10" d="M619.42,596.85s-.07,0-.08,0l0,0S619.36,596.83,619.42,596.85Z" transform="translate(-531 -155)"/><path class="cls-10" d="M618.34,597.47l0,0,0,0Z" transform="translate(-531 -155)"/><path class="cls-10" d="M598.19,610.91a1.46,1.46,0,0,1-.17-.2C598.13,610.88,598,611,598.19,610.91Z" transform="translate(-531 -155)"/><path class="cls-10" d="M634.49,589.62c0,.06,0,.1,0,.12l0,0A.28.28,0,0,0,634.49,589.62Z" transform="translate(-531 -155)"/><path class="cls-10" d="M620.48,598.79l-.19.06A.47.47,0,0,0,620.48,598.79Z" transform="translate(-531 -155)"/><path class="cls-10" d="M606.05,606.62l0,.05S606.06,606.65,606.05,606.62Z" transform="translate(-531 -155)"/><path class="cls-10" d="M619.8,599.19a.49.49,0,0,0-.19-.11.33.33,0,0,0,0,.07Z" transform="translate(-531 -155)"/><path class="cls-10" d="M598,610.71h0Z" transform="translate(-531 -155)"/><path class="cls-10" d="M597.18,611.91c.17-.08-.09-.36-.15-.57.15-.2.22.19.38.32.08-.15,0-.5.12-.54s.06.06.08.14c0-.33.38-.22.36-.63l.06.07a2.74,2.74,0,0,1-.26-.44c.07,0,0-.28.17-.08,0,0,0,.11,0,.18l0-.13c.23.27-.05.16.07.39.1-.18.14-.53.31-.5.18.29-.22.25.08.43l-.24,0c.39.4-.13,0,.27.46.28,0,.19-.29.47-.33,0-.2-.15-.24-.18-.43.18-.48.67.61.7.08,0-.23-.22-.63.06-.52l.12.37c.25-.09-.13-.56.23-.46,0,.16-.12.21-.06.23.3.18,0-.25.13-.32l.19.29c.22-.18.37-.54.62-.74,0,.1,0,.22.15.27a1.45,1.45,0,0,1,1.18-.36v-.33s.12.09.11.15c.18,0-.08-.17-.07-.3s.18.1.17.2c.11-.34.39-.82.78-.67v.1c.24,0-.08-.64.23-.5v.06c.46-.11.78-.58,1.3-.36-.14-.4.49-.05.23-.58.37.13.35.26.77.25.1,0,0-.39,0-.51l.15.27v-.36l.25.28.06-.12s-.15-.07-.19-.16.49,0,.57.12l.25-.43c.05.11,0,.18,0,.28,0-.38.19.26.23-.09-.06,0-.08-.17-.1-.22a.38.38,0,0,0,.5-.15l.07.2c.3-.1.53-.41.84-.58-.16,0-.31-.36-.24-.44l.19.26c0-.21-.15-.06-.15-.34.13,0,.26.28.24.41l.09-.18a1.64,1.64,0,0,1,.1.26c0-.21.4.15.31-.2l.05.08a7.52,7.52,0,0,0,.64-.5c-.13-.25,0-.25,0-.49.23,0,.54.05.75-.09s-.07-.23-.08-.42c.14.22.35.07.32.3a1.68,1.68,0,0,0,.55-.6c-.09-.07-.15-.09-.17-.18s.19,0,.24.13v0c.19-.55,1.24.17,1.28-.47v0l.17-.42c.16,0,0,.22.19.29.13-.56.56-.24.7-.65.59.54.73-.47,1.26-.22l-.1-.15c0-.19.14,0,.22,0-.08-.12-.16-.09-.16-.2.53-.54,1.43-.51,2.16-.74.26-.09-.32-.88.19-.68l.08.34c.28-.62,1-.54,1.28-1.11,0,.08.06.17,0,.19.22.15.37-.2.27-.37.08,0,.11.14.2.2s.09-.41.27-.23,0,.08,0,.11c0-.14.31-.15.11-.35.24,0,.27-.3.49-.24-.06-.32.37,0,.18-.44.21.4.49.14.49-.11,0,.14.17.07.22.26a.25.25,0,0,0,.06-.41c.5.33.25-.65.73-.12a5.36,5.36,0,0,1,.8-1.06c.22.4-.35.25-.1.66.23-.35.21-.79.59-.88.11,0,.05.2.06.28.23-.35.64-.33.79-.7a.21.21,0,0,1,0,.14s.16,0,.05-.19l0,.08c-.24-.2-.09-.67-.16-.81.2.56.35,0,.58.69a.35.35,0,0,0-.06-.28c.07,0,.13.06.16.23.14-.21,0-.36.14-.46,0,.09,0,.14.07.25,0-.22,0-.44.18-.46,0,.06.08.11,0,.14.25-.18.19-.71.57-.71.13.42.17.06.38.38l.1-.19-.15-.12c.14-.07.12-.38.3-.34l0,.19.22-.21-.22,0c0-.25-.26-.4,0-.42,0,.05.14-.08.32.07h0c0-.14,0-.29.16-.27s.19.37.25.43c-.09-.31.27-.26.19-.6a.82.82,0,0,0,.14.28l-.07-.25c.1,0,.13.06.2.2.21-.07-.3-.37,0-.33,0,0,0,.06,0,.11.28,0,.35-.4.62-.41.25.29-.13.19.1.42.26-.23.39-.75.72-.85h-.07c-.23-.48.35.1.37-.2a.51.51,0,0,0,.08.22c.24,0,.34-.35.55-.67l0,.14c.18,0,.34-.12.5-.14,0-.14.05-.16-.1-.31.79.43.52-.8,1.2-.45,0,0,0,.16,0,.14l.23-.28c-.14-.18-.11-.1-.26-.21a.31.31,0,0,1,.07-.32c-.05.21.19.32.32.39,0-.05-.07-.13-.11-.19.36.26-.21-.41.14-.3l.05.11c0-.1,0-.28.14-.3.17.21,0,.16.09.35.11-.08,0-.57.21-.41,0,.09-.08.14-.09.23.28.2.25.12.36.11h.26l-.09,0c-.21-.68.23-.29.2-.8,0,.49.1.23.24.5.09,0,.22.08.24.16,0-.27.26.07.2-.32.06.08.11-.05.21.17.08-.14-.12-.13-.17-.24,0-.4.65.08.68-.48.13-.3,0-.61.14-.88.15.09.13.34.13.34.19.05.27,0,.32-.19,0,.09.08.13.17.21s-.13-.34.07-.29a2.13,2.13,0,0,1,.12.39c.06-.14.07-.36.13-.5.12.13.07.26.09.38a.6.6,0,0,0,.13-.58l-.13,0s.14.18.14.24c0,.24-.2,0-.26-.07l0-.1c-.38-.44-.26.27-.43.33l-.15-.39,0,.39c-.09-.07-.23-.26-.19-.36-.22-.11,0,.19-.24,0a.07.07,0,0,1,0-.06l0,.17c0-.09-.17-.24-.07-.23-.32-.09-.15.46-.39.23v0c-.2.29.13.28.12.71l-.53-.56.13.28s-.1,0-.15-.09c0,.24.09.1.13.31-.28-.16-.3.34-.59-.06.07.23.22.08.16.3-.31-.42-.12.18-.37,0s.09-.2-.16-.33c.16.44-.29.06-.35.2.18.31-.15.27-.26.47-.05-.11-.43,0-.66,0l0-.06c.16.33,0,.38-.13.51a.59.59,0,0,1-.12-.4l-.11.07a.3.3,0,0,1,0,.27l-.11-.25c-.14.1-.14.46-.43.42.12.23.52.52.4.79-.08-.11-.21-.31-.18-.39s0,.14-.07.11l0-.25c-.14,0,.05.19,0,.22-.1-.17-.13-.09-.2-.23s.1,0,.09-.05a.45.45,0,0,1-.37-.13c.06.09.14.23.09.29s-.17-.17-.32-.21c0,.14-.14.08,0,.33,0,0-.12-.09-.18-.15,0,.16-.35.25-.1.47h0v0h0c-.11.41-.62.18-.82.44l-.05-.08c-.1.19-.31.26-.31.51,0,0-.2-.09-.24-.2-.08.13,0,.24-.29.2,0-.22-.12-.11.06-.18-.2,0-.31-.1-.34.23-.07-.25-.28-.21-.31-.1l.2.09a.4.4,0,0,1-.23.13l-.13-.31c-.52-.16-.21.93-.8.48,0,.25.25,0,.32.32-.17,0-.56-.28-.61-.25-.29,0,.06.53-.21.54.09.09.27.34.18.53s-.43-.32-.39-.46.07,0,.08,0a.15.15,0,0,0-.06-.22l0,.11c-.13-.06-.32.07-.38-.13-.05.16.05.2.16.2-.27,0-.29.17-.54.18.06,0,.16.14.13.16-.35,0,0,.27-.17.42-.2-.09-.18-.39-.29-.15-.18,0-.18-.26-.19-.37-.06.3-.4.06-.52.08l0-.14a.21.21,0,0,1-.12.13l.17.17c-.07,0-.12,0-.17-.06,0,.17.24.32.24.56-.13-.06-.15.24-.34,0,.28,0-.19-.26,0-.41,0,.05-.06.08-.14.07a.09.09,0,0,1,0-.08c-.36-.12.08.37-.15.49-.06-.17-.22-.26-.24-.21s.19.23.18.4c-.21,0-.1.18-.19.21h.12c.06.17,0,.19-.09.3-.08-.11,0-.14,0-.17,0,.33-.41-.13-.46.14-.13-.06-.18-.28-.28-.32-.06.3-.31-.1-.4.17.17.18.15.12.14.4l.21-.32,0,.41c.09,0,.12-.24.19-.24,0,.22,0,.16.13.31-.3-.24-.14.32-.41.2l-.29-.51c-.35-.1-.23.48-.58.52l.14,0c.08.22-.16.13-.2.26a.77.77,0,0,0-.28-.29c.08.12-.21.11,0,.46l-.26-.15c-.28,0,0,.64-.23.7,0-.22-.21-.29-.14-.5-.07,0-.16,0-.09.17-.1-.08-.07.35-.23.22,0,.09.11.28,0,.31a.28.28,0,0,1,0-.08c0,.08-.06.19.12.34-.53-.4-.6.4-1.06.05a2.5,2.5,0,0,1-.42.41c0-.06,0-.09,0-.08-.29,0,.16.56-.17.51-.27-.21,0-.22-.1-.28-.36-.55-.23.23-.57,0l0-.05c-.23-.12-.16.38-.37.45a.29.29,0,0,0,0-.09,1.07,1.07,0,0,1-.29.78c-.07-.25,0-.16-.15-.37-.06.08.23.35.1.5a1.22,1.22,0,0,1-.45-.36l.15-.1c-.26-.26-.19.12-.31.12l-.07-.14c-.21.18,0,.52-.29.64l.08.09c.05.42-.22-.12-.22.21l-.24-.32a2.51,2.51,0,0,1-.26.67,2.1,2.1,0,0,1,.1-.77c-.09,0-.29.2-.25.4,0-.05,0-.16.08-.13,0,.33,0,.55-.21.65-.35-.68-.57.1-1-.34-.18.43-.7.25-1,.5.43.44-.1.08.22.6-.07.08-.11.09-.13.06l-.44-.17c-.15-.12,0-.16-.06-.28-.21.07-.21-.18-.41-.25.13.18.09.31-.06.3l.29.16c-.11.43-.48-.32-.59.12v-.22c-.08.18-.51.28-.41.79-.06,0-.17-.18-.13-.25-.37.12-.48.87-.88.75l0-.14c0,.07,0,.31-.12.22s0-.14-.08-.14,0,.32-.16.29V602c-.42,0-.29.63-.52.87a.67.67,0,0,0-.7-.36l0-.06c-.4.16-.46.67-.73,1-.45-.3-.83.23-1.31.19a.41.41,0,0,1,.12.38c-.12,0-.08.39-.26,0h0c-.25-.31-.37-.13-.51-.07l.23.47c-.71-.49-.76.74-1.28.24,0,.16-.12.22-.14.38l-.13-.25a1.22,1.22,0,0,0-.65.31l0-.21c-.17.07.19.83,0,.92l-.25-.35c-.28.16-.74,0-.83.47,0-.06-.08-.17,0-.21-.14.06-.65,0-.32.51-.18-.33-.31.12-.38.35l-.11-.26c0,.38.08.47,0,.65-.06,0-.14-.18-.05-.14-.21-.05,0,.29-.23.25l0-.19c-.15.06-.1.14-.08.36s-.31.09-.45-.12c.05.15.07.37,0,.35a.26.26,0,0,1-.05-.18c-.33,0-.21.48-.5.33a.38.38,0,0,0-.11-.13c.2-.1.36-.17.35-.14-.12-.23-.3-.18-.34-.56,0,.24,0,.72-.26.7l-.06-.07v0s-.07,0-.08.09a.27.27,0,0,0-.16,0c-.12-.18-.23,0-.31,0,.14.24,0,.26.22.41,0,0,0,0,0-.08a.08.08,0,0,0,0,0v0l.18-.12c0,.16,0,.3-.16.21l.11.46c-.29-.29-.6-.37-.74-.56-.16.27-.51.39-.41.94,0,.1-.15-.09-.21-.15s.06-.09,0-.16c-.07.19-.37.26-.23.6-.25-.06-.06-.35-.27-.17l0-.12c-.74-.28-.31,1.23-1.17.83a.21.21,0,0,1,.12.08c-.74,0-1.05.91-1.87.75-.21,0-.12.21-.14.42l-.18-.25v.4c-.12.35-.76-.44-.85.15l.13.16c-.13,0-.29.29-.38.07,0,0,.06.21,0,.13l-.08-.14-.14.38c-.26,0-.26-.57-.58-.44-.09.11-.11.58,0,.65s.16,0,.24.16l-.07.13c.2.42.34.89.74,1l0-.35.16.17-.14.09c.18.14.15-.05.15-.2a.48.48,0,0,0,.19.18l0-.49c.11.15.09.36.25.39,0-.23-.27-.32-.2-.51.18.14.24.31.25.1a.3.3,0,0,1,.07.25c0-.17.21-.18.14-.42.21.18.27-.22.47.18,0-.11,0-.39.07-.45.1.55.32-.13.54.39-.11-.48.3-.4.38-.73,0,0,0,.12,0,.11.13,0,.23.09.34.13-.17-.35,0-.52-.06-.79.31.26.13.45.34.75-.15-.28.09-.4-.08-.61.21.15.14.05.35.31-.21-.44.06-.12,0-.44.26.13.25.39.35.17C597.24,611.68,597.18,611.91,597.18,611.91Zm3.5-2.82h0l-.07.06Zm.32-.18-.15.07c-.06-.08-.09-.17-.06-.19S600.91,608.86,601,608.91Zm-1.61-1.35c0-.06.08,0,.11,0l-.07.08v0A.83.83,0,0,1,599.39,607.56Z" transform="translate(-531 -155)"/><path class="cls-10" d="M599.47,607.93s0,0,0,0l.06,0,0-.09Z" transform="translate(-531 -155)"/><path class="cls-10" d="M628.84,591.74h0l0,0Z" transform="translate(-531 -155)"/><polygon class="cls-10" points="74.75 451.94 74.72 451.87 74.72 451.94 74.75 451.94"/><path class="cls-10" d="M631.09,591.52l.06,0Z" transform="translate(-531 -155)"/><path class="cls-10" d="M631.87,591.11l.16,0A.47.47,0,0,0,631.87,591.11Z" transform="translate(-531 -155)"/><path class="cls-10" d="M632.53,590.88l-.05-.11h0Z" transform="translate(-531 -155)"/><path class="cls-10" d="M623.43,596.69l0,0C623.39,596.79,623.42,596.75,623.43,596.69Z" transform="translate(-531 -155)"/><path class="cls-10" d="M625.86,594.49a.73.73,0,0,1,0,.17C625.9,594.65,625.94,594.63,625.86,594.49Z" transform="translate(-531 -155)"/><polygon class="cls-10" points="89.5 443.79 89.5 443.78 89.48 443.79 89.5 443.79"/><path class="cls-10" d="M625.71,594.73a.1.1,0,0,0,.13-.07S625.73,594.67,625.71,594.73Z" transform="translate(-531 -155)"/><path class="cls-10" d="M635.1,589.46h0l0,0Z" transform="translate(-531 -155)"/><path class="cls-10" d="M635.12,589.41v0S635.1,589.38,635.12,589.41Z" transform="translate(-531 -155)"/><path class="cls-10" d="M635.16,589.26l0,.1S635.18,589.34,635.16,589.26Z" transform="translate(-531 -155)"/><path class="cls-10" d="M634.27,589.82l0,.09Z" transform="translate(-531 -155)"/><path class="cls-10" d="M634.05,590c.07,0,.25.1.3,0l0-.07C634.35,590.06,634,589.81,634.05,590Z" transform="translate(-531 -155)"/><path class="cls-10" d="M632.42,589.5l.24,0c-.09-.07-.21-.17-.14-.25C632.11,589.08,632.7,589.38,632.42,589.5Z" transform="translate(-531 -155)"/><path class="cls-10" d="M631.74,589.73c.08-.11-.08-.13-.11-.19C631.61,589.67,631.61,589.7,631.74,589.73Z" transform="translate(-531 -155)"/><path class="cls-10" d="M627.36,592.37l-.12-.23C627.17,592.22,627.29,592.23,627.36,592.37Z" transform="translate(-531 -155)"/><polygon class="cls-10" points="96.19 439 96.35 439.09 96.27 438.87 96.19 439"/><polygon class="cls-10" points="94.76 437.73 94.78 437.68 94.69 437.84 94.76 437.73"/><path class="cls-10" d="M618.41,597.15l.18.26C618.61,597.33,618.45,597,618.41,597.15Z" transform="translate(-531 -155)"/><path class="cls-10" d="M615.35,599.27c-.11-.12-.25-.15-.23,0C615.2,599.26,615.33,599.33,615.35,599.27Z" transform="translate(-531 -155)"/><polygon class="cls-10" points="74.4 449.25 74.42 449.12 74.34 449.26 74.4 449.25"/><path class="cls-10" d="M599.36,617c0,.08.13.25.15.19l-.13-.31Z" transform="translate(-531 -155)"/><path class="cls-10" d="M599.95,617.36a1.66,1.66,0,0,0-.28-.7c.1.31,0,.2.15.56,0,.06-.13-.05-.18-.16,0,.08-.1,0,0,.17s.26.16.23-.06A.71.71,0,0,1,599.95,617.36Z" transform="translate(-531 -155)"/><path class="cls-10" d="M604.5,615.5l0,0Z" transform="translate(-531 -155)"/><path class="cls-10" d="M607.25,614.23s0,.05,0,.08A.08.08,0,0,0,607.25,614.23Z" transform="translate(-531 -155)"/><path class="cls-10" d="M607.88,614.3h0S607.88,614.33,607.88,614.3Z" transform="translate(-531 -155)"/><path class="cls-10" d="M604.5,615.5l.12.05C604.57,615.46,604.54,615.5,604.5,615.5Z" transform="translate(-531 -155)"/><path class="cls-10" d="M600.16,616.34a.22.22,0,0,0,0,.1l0-.05Z" transform="translate(-531 -155)"/><path class="cls-10" d="M603.45,616.37h0l0,.13Z" transform="translate(-531 -155)"/><path class="cls-10" d="M602.57,616.9a1.74,1.74,0,0,0-.15-.36.39.39,0,0,1,0,.19Z" transform="translate(-531 -155)"/><path class="cls-10" d="M600.9,617.24v0S600.9,617.25,600.9,617.24Z" transform="translate(-531 -155)"/><path class="cls-10" d="M604.12,616.08l.06.08Z" transform="translate(-531 -155)"/><path class="cls-10" d="M628.36,600.64l0,0S628.36,600.63,628.36,600.64Z" transform="translate(-531 -155)"/><path class="cls-10" d="M630.06,601.3v0l.07.14Z" transform="translate(-531 -155)"/><path class="cls-10" d="M608.88,614.17h0S608.88,614.2,608.88,614.17Z" transform="translate(-531 -155)"/><path class="cls-10" d="M616.43,609.87c-.21-.17,0-.36-.27-.54C616.22,609.43,616.25,609.79,616.43,609.87Z" transform="translate(-531 -155)"/><path class="cls-10" d="M600.2,616.36l0,0S600.21,616.35,600.2,616.36Z" transform="translate(-531 -155)"/><path class="cls-10" d="M616.16,609.34h0l0,0Z" transform="translate(-531 -155)"/><path class="cls-10" d="M610.72,613l-.08-.1Z" transform="translate(-531 -155)"/><path class="cls-10" d="M609.1,613.41h0Z" transform="translate(-531 -155)"/><path class="cls-10" d="M611.28,612.24s.05,0,.06,0l0,0S611.32,612.27,611.28,612.24Z" transform="translate(-531 -155)"/><path class="cls-10" d="M612,611.82l0,0,0,0Z" transform="translate(-531 -155)"/><path class="cls-10" d="M626.07,602a2,2,0,0,1,.16.2C626.12,602.05,626.2,601.93,626.07,602Z" transform="translate(-531 -155)"/><path class="cls-10" d="M600.24,616.48a.24.24,0,0,1,0-.12l0,0A.4.4,0,0,0,600.24,616.48Z" transform="translate(-531 -155)"/><path class="cls-10" d="M610.26,610.27l.14,0A.25.25,0,0,0,610.26,610.27Z" transform="translate(-531 -155)"/><path class="cls-10" d="M620.54,605v0S620.54,605,620.54,605Z" transform="translate(-531 -155)"/><path class="cls-10" d="M610.74,610a.56.56,0,0,0,.16.13.44.44,0,0,0,0-.07Z" transform="translate(-531 -155)"/><path class="cls-10" d="M626.23,602.22h0Z" transform="translate(-531 -155)"/><path class="cls-10" d="M626.72,601.2c-.12.06.12.35.19.55-.09.17-.19-.2-.33-.35,0,.13.05.47,0,.49a.38.38,0,0,1-.08-.14c0,.31-.27.16-.2.54l-.06-.07a3.89,3.89,0,0,1,.26.44s0,.26-.12.06c0,0,0-.1,0-.17v.12c-.21-.28,0-.15-.1-.37-.05.16,0,.48-.17.44-.18-.29.14-.2-.11-.41l.19,0c-.35-.42.09,0-.27-.47-.21,0-.11.25-.32.26.05.19.14.24.2.43-.08.43-.59-.65-.55-.16.06.22.25.61,0,.48l-.14-.36c-.18.05.17.54-.12.4,0-.15.07-.18,0-.21-.25-.21,0,.23-.06.28l-.18-.29c-.15.14-.22.46-.38.62a.53.53,0,0,0-.15-.27c-.16.28-.53.24-.86.19l.05.31s-.1-.1-.11-.16.08.17.09.29-.15-.11-.16-.21c0,.31-.2.72-.52.53v-.09c-.19,0,.14.61-.11.43v-.06c-.34,0-.53.45-1,.17.16.39-.37,0-.11.51-.3-.17-.3-.29-.63-.34-.07,0,.08.37,0,.47l-.15-.27.05.34-.23-.3,0,.11s.13.09.16.17-.37,0-.45-.18l-.14.37a.5.5,0,0,1,0-.26c0,.35-.18-.27-.17.05a.87.87,0,0,1,.1.22.23.23,0,0,0-.37.07l-.08-.2c-.22.06-.36.31-.58.42.13,0,.28.38.23.44l-.18-.27c.05.2.13.07.16.33-.1,0-.23-.3-.23-.42l0,.15a2.29,2.29,0,0,1-.11-.25c.06.2-.33-.2-.22.15l-.05-.08c-.22.11-.26.27-.43.38.13.25,0,.23.09.46-.17,0-.42-.13-.57,0s.08.23.11.4c-.13-.22-.28-.12-.28-.32a1,1,0,0,0-.36.49c.08.08.13.1.15.19s-.15,0-.2-.15v0c-.09.48-1-.33-.93.26v0l-.09.36c-.12,0,0-.2-.18-.3,0,.5-.41.15-.47.5-.51-.58-.51.34-.95,0l.1.15c0,.18-.11-.06-.17-.07s.13.11.15.21c-.35.43-1.05.27-1.59.38-.19,0,.34.86-.07.6l-.1-.32c-.15.53-.7.36-.88.84,0-.08-.06-.17,0-.18-.18-.17-.27.13-.17.3-.06,0-.1-.15-.18-.22s0,.37-.18.17a.13.13,0,0,1,0-.1c0,.13-.23.09-.05.31-.19,0-.18.24-.36.15.08.31-.28,0-.1.38-.21-.4-.39-.2-.37,0,0-.13-.14-.09-.19-.27-.09.05-.13.17,0,.37-.42-.39-.13.56-.55,0a3.28,3.28,0,0,1-.51.86c-.21-.4.24-.18,0-.59-.14.29-.09.7-.37.72-.09,0-.06-.19-.08-.27-.14.29-.46.2-.55.53a.25.25,0,0,1,0-.13s-.12,0,0,.17v-.07c.2.23.14.63.2.78-.21-.55-.27,0-.51-.73a.44.44,0,0,0,.08.27c-.06,0-.11-.08-.14-.24-.09.18.06.34-.07.41a1.94,1.94,0,0,1-.08-.25c0,.21.05.41-.1.4s-.07-.12,0-.13c-.17.13-.08.63-.37.57-.14-.41-.14-.09-.33-.41l-.06.16.13.14c-.1,0-.06.33-.2.27v-.17l-.15.16.17.07c0,.22.23.41.06.39,0,0-.1,0-.25-.12h0c0,.13,0,.27-.1.22s-.18-.37-.23-.43c.1.3-.19.2-.09.52a1.16,1.16,0,0,0-.13-.28l.08.24c-.08,0-.11-.08-.18-.22-.16,0,.27.39,0,.3,0,0,0-.05,0-.1-.21,0-.24.31-.44.28-.22-.31.09-.15-.11-.4-.18.18-.23.64-.48.67l.06,0c.22.48-.28-.15-.27.13a.7.7,0,0,0-.08-.22c-.18,0-.23.27-.36.53l0-.13c-.14-.06-.25.06-.37.05,0,.13,0,.14.1.3-.65-.53-.33.65-.89.22,0,0,0-.14,0-.13l-.15.22c.13.19.09.11.22.24s0,.26,0,.29c0-.19-.18-.33-.28-.42,0,.06.06.13.1.2-.3-.3.2.42-.08.26l0-.11c0,.08,0,.25-.08.26-.15-.22,0-.14-.1-.34-.08.06.07.54-.13.34,0-.09.05-.11.05-.2-.23-.23-.2-.16-.29-.17h0l-.21,0,.08.06c.22.67-.16.23-.08.71-.07-.46-.1-.23-.23-.5-.08-.05-.18-.11-.2-.19,0,.25-.2-.11-.13.26-.05-.08-.08,0-.18-.19-.05.12.1.14.15.25,0,.37-.51-.18-.49.32-.08.26,0,.56,0,.79a.5.5,0,0,1-.13-.34c-.15-.08-.2,0-.23.12a.56.56,0,0,0-.15-.22c-.05.06.13.34,0,.25a2.88,2.88,0,0,1-.12-.38c0,.12,0,.32-.06.44a.72.72,0,0,1-.1-.37.55.55,0,0,0-.06.51l.1.05s-.13-.19-.13-.25c0-.23.15,0,.2.11l0,.09c.33.47.18-.2.31-.23l.15.39,0-.37c.08.08.2.28.18.36.18.14,0-.17.18,0a.1.1,0,0,1,0,.07l0-.15c0,.09.15.25.08.22.26.14.08-.4.28-.15v0c.13-.23-.13-.28-.15-.67l.46.61-.13-.28s.08,0,.13.11c0-.22-.08-.11-.13-.31.23.19.21-.26.46.16-.08-.22-.18-.11-.15-.31.28.44.08-.14.28,0s-.05.17.15.34c-.16-.43.22,0,.25-.12-.17-.32.09-.22.16-.4,0,.11.33,0,.51.1l0,.06c-.15-.34,0-.34.06-.45a.77.77,0,0,1,.12.39l.08,0a.31.31,0,0,1,0-.25l.11.25c.1-.07.07-.4.3-.32-.11-.23-.45-.57-.38-.8a1.09,1.09,0,0,1,.18.4s0-.13,0-.09l.05.24c.11.06-.06-.19,0-.2.09.17.11.1.17.25s-.08,0-.07,0a.45.45,0,0,1,.3.18c-.06-.1-.13-.23-.1-.28s.15.19.26.24c0-.14.1,0,0-.31,0,0,.1.1.15.17,0-.15.25-.18,0-.42h0v0h0c0-.36.47-.06.59-.27l0,.09c.06-.16.22-.19.19-.42,0,0,.16.12.2.23,0-.11,0-.21.21-.14,0,.2.1.12,0,.16.15,0,.25.14.24-.16.08.24.23.24.25.14L606,615a.21.21,0,0,1,.17-.08l.13.31c.42.24.08-.83.57-.32-.05-.24-.2-.08-.28-.35.13,0,.46.35.49.33.23.09-.1-.5.11-.47-.08-.09-.24-.36-.19-.52s.36.37.34.49-.05,0-.07,0a.18.18,0,0,0,.07.22l0-.11c.11.08.25,0,.3.18a.17.17,0,0,0-.15-.21c.21.08.21-.11.4-.08-.05,0-.14-.16-.12-.17.27,0,0-.25.09-.36.16.12.18.4.24.19.14.06.17.27.18.37,0-.27.3,0,.4,0l0,.12a.12.12,0,0,1,.08-.1l-.15-.19c.06,0,.09,0,.14.09,0-.16-.22-.33-.24-.56.11.08.1-.2.26.07-.21,0,.17.27.05.39,0,0,0-.06.1,0a.11.11,0,0,1,0,.08c.29.16-.1-.35.07-.43.06.17.2.28.21.23s-.17-.24-.18-.4c.17.07.06-.15.12-.17l-.09,0c-.06-.17,0-.17,0-.26.07.12,0,.12,0,.16-.07-.32.33.19.34-.06.11.08.16.29.25.34,0-.27.25.14.29-.1-.15-.19-.13-.13-.15-.39l-.14.26,0-.38c-.07,0-.07.21-.12.19,0-.21,0-.15-.13-.31.26.27.08-.28.29-.12l.28.52c.28.15.13-.41.4-.39l-.11-.06c-.08-.22.11-.1.13-.21a1,1,0,0,0,.25.31c-.07-.13.15-.07,0-.42l.21.18c.21,0-.08-.59.11-.62.05.21.19.3.16.49.05,0,.12,0,.05-.14.09.09,0-.31.15-.17,0-.09-.11-.27,0-.29a.39.39,0,0,1,0,.09c0-.09,0-.17-.13-.33.45.46.43-.28.82.11a1.36,1.36,0,0,1,.28-.32c0,.06,0,.09,0,.08.23.09-.18-.55.08-.45s0,.2.1.28c.33.56.15-.18.44.09v0c.19.15.09-.33.24-.36a.42.42,0,0,0,0,.09.88.88,0,0,1,.15-.68c.08.25,0,.15.15.36,0-.06-.21-.36-.13-.48a1.53,1.53,0,0,1,.39.4l-.1.07c.23.28.14-.09.22-.06l.07.14c.15-.14,0-.48.16-.56l-.07-.09c-.09-.4.19.15.15-.16l.22.33a2.08,2.08,0,0,1,.13-.59,2.17,2.17,0,0,1,0,.7.28.28,0,0,0,.15-.33s0,.15,0,.11c-.07-.32,0-.51.1-.57.34.69.43,0,.8.46.09-.37.51-.14.76-.32-.38-.47.07-.06-.24-.59,0-.07.07-.07.1,0l.36.22c.13.13,0,.15.08.27s.18.2.35.29c-.12-.18-.1-.3,0-.27l-.24-.19c0-.39.41.36.45,0l0,.2c0-.15.36-.19.23-.68.05.05.15.19.13.25.27-.06.28-.74.6-.57l.05.14c0-.06-.06-.29.07-.19s.05.14.08.14,0-.29.09-.25l0,.17c.32,0,.16-.55.3-.74a.69.69,0,0,0,.58.43l0,.06c.29-.1.28-.57.45-.85.38.34.61-.1,1,0a.54.54,0,0,1-.13-.37c.1,0,0-.36.2,0h0c.23.33.3.17.4.13L621,607c.61.55.5-.59,1-.06,0-.15.07-.19.06-.33l.13.25a.62.62,0,0,0,.46-.2l.05.2c.12,0-.24-.8-.15-.87l.23.36c.19-.11.57.11.58-.34,0,.06.08.17.05.2s.5.06.19-.43c.18.33.22-.08.25-.28l.12.25c-.08-.36-.12-.45,0-.6,0,0,.13.18.06.14.17.08,0-.27.14-.21l0,.18c.11,0,.06-.12,0-.33s.23,0,.36.17c-.06-.14-.1-.35,0-.32a.35.35,0,0,1,.06.17c.26.08.1-.42.35-.24a.51.51,0,0,0,.1.14c-.14.07-.26.11-.25.09.12.23.25.21.33.57,0-.22-.05-.67.11-.62l.06.07v0s0,0,0-.07.09,0,.13,0c.11.18.18,0,.24,0-.14-.25,0-.24-.22-.41,0,0,0,0,0,.06a.07.07,0,0,0,0,0v0l-.13.09c0-.15,0-.28.1-.17-.06-.17-.11-.35-.14-.44.26.3.51.41.64.62.09-.23.34-.3.2-.82,0-.09.13.1.18.17s0,.07,0,.15c0-.17.26-.2.1-.53.2.08.09.34.23.19l0,.11c.6.35.08-1.11.8-.64a.25.25,0,0,1-.1-.09c.57.07.69-.73,1.35-.48.17,0,.07-.18.05-.38l.17.25,0-.37c0-.32.64.49.63,0l-.12-.16c.1,0,.19-.24.29,0,0,0-.07-.2,0-.12l.08.14.06-.34c.2,0,.27.56.5.48a1,1,0,0,0-.07-.6s-.13,0-.21-.18l0-.11a2.38,2.38,0,0,0-.71-1.06v.32l-.15-.18.1-.07c-.16-.16-.11,0-.09.17a.63.63,0,0,0-.17-.19l.09.46c-.1-.15-.12-.35-.25-.39,0,.21.25.33.22.5-.16-.15-.22-.32-.21-.12a.4.4,0,0,1-.09-.24c0,.16-.14.14-.05.38-.19-.2-.18.17-.38-.22,0,.1.05.36,0,.41-.15-.52-.23.09-.47-.43.15.46-.18.34-.19.64,0,0,0-.11,0-.1s-.19-.11-.28-.16a1.83,1.83,0,0,1,.15.74c-.27-.28-.16-.44-.36-.74.16.28,0,.37.14.58a1.11,1.11,0,0,1-.31-.33c.22.44,0,.11.05.41-.22-.16-.24-.39-.29-.2A.4.4,0,0,1,626.72,601.2Zm-2.33,2.22h0l0,0Zm-.23.13.1,0c.05.08.09.17.07.18S624.23,603.6,624.16,603.55Zm1.41,1.45c0,.05-.06,0-.09,0l0-.06v0Z" transform="translate(-531 -155)"/><path class="cls-10" d="M625.46,604.64s0,0,0,0l-.05,0,0,.08Z" transform="translate(-531 -155)"/><path class="cls-10" d="M604.44,615.48h0l0,0Z" transform="translate(-531 -155)"/><polygon class="cls-10" points="89.73 449.78 89.77 449.84 89.76 449.78 89.73 449.78"/><path class="cls-10" d="M602.72,615.31l-.05-.05Z" transform="translate(-531 -155)"/><path class="cls-10" d="M602.14,615.55l-.12,0Z" transform="translate(-531 -155)"/><path class="cls-10" d="M601.66,615.65l0,.11h0Z" transform="translate(-531 -155)"/><path class="cls-10" d="M608.18,611.77v0C608.2,611.68,608.19,611.71,608.18,611.77Z" transform="translate(-531 -155)"/><path class="cls-10" d="M606.5,613.41a.75.75,0,0,1,0-.15S606.43,613.27,606.5,613.41Z" transform="translate(-531 -155)"/><path class="cls-10" d="M610.24,610.27h0Z" transform="translate(-531 -155)"/><path class="cls-10" d="M606.6,613.22c-.06,0-.09,0-.09,0S606.59,613.27,606.6,613.22Z" transform="translate(-531 -155)"/><path class="cls-10" d="M599.77,616.52h0l0,0Z" transform="translate(-531 -155)"/><path class="cls-10" d="M599.77,616.56v0S599.78,616.59,599.77,616.56Z" transform="translate(-531 -155)"/><path class="cls-10" d="M599.75,616.69v-.09S599.72,616.61,599.75,616.69Z" transform="translate(-531 -155)"/><path class="cls-10" d="M600.39,616.34l0-.09Z" transform="translate(-531 -155)"/><path class="cls-10" d="M600.55,616.22c-.05,0-.2-.14-.23-.05l0,.07C600.3,616.09,600.59,616.39,600.55,616.22Z" transform="translate(-531 -155)"/><path class="cls-10" d="M601.85,616.95h-.18c.08.08.18.19.13.25C602.13,617.39,601.64,617,601.85,616.95Z" transform="translate(-531 -155)"/><path class="cls-10" d="M602.36,616.85c-.05.09.08.14.1.19C602.47,616.93,602.47,616.9,602.36,616.85Z" transform="translate(-531 -155)"/><path class="cls-10" d="M605.54,615.14l.11.23C605.69,615.31,605.61,615.29,605.54,615.14Z" transform="translate(-531 -155)"/><polygon class="cls-10" points="74.52 458.65 74.39 458.54 74.47 458.76 74.52 458.65"/><polygon class="cls-10" points="75.74 460.06 75.73 460.11 75.79 459.98 75.74 460.06"/><path class="cls-10" d="M612,612.12l-.17-.27C611.85,611.92,612,612.23,612,612.12Z" transform="translate(-531 -155)"/><path class="cls-10" d="M614.18,610.59c.1.13.21.18.18,0C614.29,610.62,614.18,610.54,614.18,610.59Z" transform="translate(-531 -155)"/><polygon class="cls-10" points="90.32 452.33 90.33 452.45 90.37 452.33 90.32 452.33"/><path class="cls-9" d="M657.09,316.75" transform="translate(-531 -155)"/><ellipse class="cls-11" cx="767.55" cy="862.27" rx="15.7" ry="37.17" transform="translate(-798.36 1218.75) rotate(-74.63)"/><ellipse class="cls-11" cx="610.55" cy="870.27" rx="37.17" ry="15.7" transform="translate(-798.34 115.73) rotate(-20.62)"/><circle class="cls-12" cx="125.5" cy="158.5" r="1.5"/><circle class="cls-12" cx="704.5" cy="313.5" r="1.5" transform="translate(-578.71 -11.17) rotate(-11.28)"/></svg>
