<svg xmlns="http://www.w3.org/2000/svg" xmlns:xlink="http://www.w3.org/1999/xlink" viewBox="0 0 100 200"><defs><style>.cls-1{fill:none;}.cls-2{fill:#f0add5;}.cls-3{fill:#92d3f3;}.cls-4{fill:#fce5cd;}.cls-5{fill:#f49da7;}.cls-6{fill:#f9e208;}.cls-7{fill:#f2b9ca;stroke:#f2b9ca;stroke-miterlimit:10;}.cls-8{fill:#f1afd1;}.cls-9{fill:#f0c3dc;}.cls-10{fill:#050505;}.cls-11{fill:#020202;}.cls-12{fill:#fff;}.cls-13{fill:#aaa;}.cls-14{fill:#81c8fc;}</style><symbol id="prinsessetyd" data-name="prinsessetyd" viewBox="0 0 100 200"><rect class="cls-1" width="100" height="200"/><polygon class="cls-2" points="51.83 11.5 29.39 55.52 68.29 55.52 51.83 11.5"/><path class="cls-3" d="M52.11,11S69.18,4,75,27.4C75,27.4,71.25,5.16,52.11,11Z"/><polygon class="cls-4" points="26.4 143.55 35.48 187.05 40.93 143.21 26.4 143.55"/><polygon class="cls-4" points="61.76 142.71 75.77 142.38 70.53 186.41 61.76 142.71"/><path class="cls-3" d="M12.46,142.21s-3.32,3.36-.09,4.49,5-4.39,5-4.39-1.71,4.46.68,4.08a7.87,7.87,0,0,0,4.16-2.48s.17,2.57,1.68,2.6S27.37,144,27.37,144s.57,3.86,3,2.19S33,143.92,33,143.92s-.06,3.2,1.69,2.38a12.68,12.68,0,0,0,3.3-2.49s-.06,3,1.89,2.81a3.42,3.42,0,0,0,2.65-2.29s-.05,2.13,1.68,2.38,3.31-2.92,3.31-2.92.15,3.21,1.89,2.81,3.53-2.92,3.53-2.92.6,2.15,1.68,2.39,3.07-1.86,3.07-1.86,1.47,2.38,2.77,2.19,2.87-2.72,2.87-2.72.59,3.22,2.55,2.41a6.12,6.12,0,0,0,2.88-2.72s.8,3.22,2.33,2.4a12.7,12.7,0,0,0,2.86-2.3s.37,3,2.34,2.4a4.32,4.32,0,0,0,2.64-2.29s.59,3.21,1.9,2.39a6.35,6.35,0,0,0,2-3s.16,3,2.55,2.62.07-3.63.07-3.63Z"/><path class="cls-4" d="M85.43,139.35,92.86,136s4.27,8,.74,11.11c0,0-3.9,2.31-5.57-4.19C88,142.92,86.36,146.27,85.43,139.35Z"/><ellipse class="cls-5" cx="29.41" cy="189.88" rx="7.94" ry="3.35" transform="translate(-64.98 22.52) rotate(-20.62)"/><ellipse class="cls-5" cx="75.77" cy="189.01" rx="3.35" ry="7.94" transform="translate(-126.57 211.97) rotate(-74.63)"/><path class="cls-4" d="M11,138.1l-7.8-3.25s-4.49,7.72-.78,10.77c0,0,4.1,2.23,5.85-4.06C8.31,141.55,10.06,144.8,11,138.1Z"/><path class="cls-3" d="M3.45,134.74s-1.49.8-.64,1.79,2.14-1,2.14-1-1.28,1.39-.22,1.79,1.71-1.22,1.71-1.22-.85,1.42.22,1.82,1.55-1.16,1.55-1.16-.91,1.36-.06,1.95,1.71-1.19,1.71-1.19-.64,1.59.43,1.59,1-1.29,1-1.29Z"/><path class="cls-3" d="M74.86,27.67s-8.13,17.92,2.76,28.06S77.36,89,77.36,89s-1.58,14.8,3.34,17.47S96,98.82,96,98.82,87.4,88.68,88.45,79.2s.89-25.67-7.24-32.39S74.86,27.67,74.86,27.67Z"/><path class="cls-6" d="M27.47,59.47s-8.23,13.25-14.42,7c0,0-3.85-5.12,3.84-7,0,0,3.21-.21,2.35,3s-3,1.5-3,1.5,2.14,3.2,3.42-1.5-4.27-3-4.27-3-5.13,1.07-3.42,6.2,8.12,2.14,8.12,2.14a25,25,0,0,0,3.42-2.35,23.79,23.79,0,0,0,3.3-4.17Z"/><path class="cls-6" d="M25.9,65.35s-1.1,15.49-9.86,17-6.63-8.12-6.63-8.12,4.28-6,6.84,0c0,0,1.28,4.06-2.13,3.2,0,0,2.13,1.93,3-1.28S13.9,71,13.9,71s-2.78-1.28-4.7,2.35.43,7.69.43,7.69,1.49,2.57,5.77,2.14,5.77-2.78,5.77-2.78a35.88,35.88,0,0,0,3-4.91c.43-1.28,1.74-5.72,1.74-5.72Z"/><path class="cls-6" d="M68.26,55.41s8.22,13.25,14.42,7.05c0,0,3.84-5.13-3.85-7.05,0,0-3.2-.21-2.35,3s3,1.5,3,1.5-2.13,3.2-3.42-1.5,4.28-3,4.28-3,5.13,1.07,3.42,6.2-8.12,2.14-8.12,2.14a24.38,24.38,0,0,1-3.42-2.35,23.52,23.52,0,0,1-3.31-4.17Z"/><path class="cls-6" d="M72,65.55S73.49,81,82.28,82.31s6.44-8.26,6.44-8.26-4.4-5.89-6.84.15c0,0-1.19,4.09,2.21,3.16,0,0-2.09,2-3-1.22s3.09-5.2,3.09-5.2,2.75-1.34,4.76,2.25-.26,7.69-.26,7.69-1.44,2.6-5.72,2.26-5.83-2.65-5.83-2.65A36,36,0,0,1,74,75.65C73.55,74.37,72.14,70,72.14,70Z"/><path class="cls-7" d="M29.93,55a9.48,9.48,0,0,0,4.71-1.92,12.47,12.47,0,0,0,3.56-4.27c.21-.64.43-3.21-1-2.78a2.88,2.88,0,0,0-1.89,1.71s-1.47,3-.63,4.49A14.43,14.43,0,0,0,36.78,55,5.73,5.73,0,0,0,42,53.7c2.51-2.13,4.19-4.06,4-5.55,0,0,.62-3.21-.43-3.42a1,1,0,0,0-1.26.85s-.84.86-.63,3.63a18.16,18.16,0,0,0,.43,3.42S44.91,55,47,55a14.9,14.9,0,0,0,4.4-.85,16,16,0,0,0,2.73-2.78c.63-1.07,1.67-3.42,1.26-4.91a2.28,2.28,0,0,0-1.68-1.71s-.84,0-1.05.64-.83,2.35-.42,3.42.21,2.35,2.09,3.84A16.94,16.94,0,0,0,58.52,55s3.77,0,5-1.28,1.89-3.42.84-4.49-1.68,0-1.68,0a3.3,3.3,0,0,0,0,2.57c.63,1.07,2,3.76,3.74,3.37s.87-.17.87-.17a6.32,6.32,0,0,1-3.68-2.3,4.83,4.83,0,0,1-.72-1.54s-.21-2.14.43-1.93a1.87,1.87,0,0,1,1.26,1.5c.21.86-1.68,3-1.68,3s-5.24,2.78-8.8-1.92-.63-6.41-.63-6.41,1.26-.43,1.47,1.92-2.31,4.92-2.31,4.92a6,6,0,0,1-5.87,2.13c-4-.64-2.51-7.9-2.51-7.9s1.46-3,1.25.21-1,3.85-1,3.85l-3.15,3s-2.3,3.42-5.86-.64a5.55,5.55,0,0,1,.83-5.77s1.68-1.5,1.26,1.28-4.19,4.7-4.19,4.7Z"/><path class="cls-8" d="M38.93,89.15S-.84,106.28,12.56,142.72l37-.4-.44-50.08A17.09,17.09,0,0,1,38.93,89.15Z"/><path class="cls-8" d="M58.62,89.14S98.4,106.26,85,142.71l-37-.37.41-50.09A17.1,17.1,0,0,0,58.62,89.14Z"/><path class="cls-9" d="M35.7,87.77S0,104,3,135l8,3.1S3,112,39,89Z"/><path class="cls-9" d="M61.74,88.42s35.29,17.09,31.54,48l-8.11,2.9s8.67-25.9-26.76-49.76Z"/><path class="cls-3" d="M93.11,136s1.47.78.63,1.75-2.1-1-2.1-1,1.26,1.35.21,1.74-1.68-1.19-1.68-1.19.84,1.39-.22,1.77S88.42,138,88.42,138s.9,1.31.06,1.89-1.68-1.16-1.68-1.16.63,1.55-.42,1.55-.95-1.26-.95-1.26Z"/><path class="cls-4" d="M29.5,55.41S18.39,71.65,34,86.61c0,0,21.37,16.67,36.11-7.48,0,0,6.2-10.26-1.92-23.72Z"/><path class="cls-5" d="M35.7,68.77a3.93,3.93,0,0,1-3.07,3.87,4.13,4.13,0,0,1-.78.08,4,4,0,1,1,3.85-4.06Z"/><circle class="cls-5" cx="66.04" cy="68.61" r="4.05"/><path class="cls-10" d="M64.67,86s-3.42-12.6-15.3-12.25S34.78,86.4,34.78,86.4s3.3-11.74,14.6-12.08S64.67,86,64.67,86Z"/><path class="cls-10" d="M55.76,68.23s2.85-.91,1.74-2.46a1,1,0,0,1,.59,1C58,67.42,57,68,57,68l-.85.52Z"/><path class="cls-10" d="M56.5,68.66s2.59.21,2.21-1.4a.87.87,0,0,1,.15,1c-.31.5-1.28.64-1.28.64l-.86.14Z"/><path class="cls-10" d="M42.58,68.53,41.73,68s-1-.59-1.1-1.26a1,1,0,0,1,.59-1C40.11,67.32,43,68.23,43,68.23Z"/><path class="cls-10" d="M42,69l-.86-.14s-1-.14-1.28-.64a.87.87,0,0,1,.15-1c-.38,1.61,2.21,1.4,2.21,1.4Z"/><circle class="cls-11" cx="54.88" cy="69.12" r="2.12"/><circle class="cls-11" cx="44.12" cy="69.12" r="2.12"/><circle class="cls-12" cx="43.03" cy="68.03" r="0.34"/><circle class="cls-12" cx="54.02" cy="68.03" r="0.34"/><path class="cls-6" d="M26.46,72.51s2.4,12,1.76,16S26.3,96,25,96.87s-6.83,6.41-11.11,2.35-3.85-7.69-3.85-7.69.65-4.49,4.49-4.28,3.85,4.49,3.85,4.49-.21,4.06-3.21,3S14.12,92,14.12,92A1.32,1.32,0,0,0,15,94.09,1.94,1.94,0,0,0,17.53,93s2.14-2.56-2.35-5.34c0,0-4.06-.64-4.7,4.27A9.89,9.89,0,0,0,15,99.22c4.27,2.78,9.4-2.57,9.4-2.57A8.86,8.86,0,0,0,26.94,92c.42-2.77,1.07-2.77.85-6.62S26.3,74,26.3,74Z"/><path class="cls-6" d="M71.35,75.52s-.51,12.2.76,16.11,3.06,7.09,4.46,7.73,7.75,5.27,11.34.59,2.6-8.19,2.6-8.19-1.33-4.34-5.09-3.53-3.1,5-3.1,5,.84,4,3.63,2.45.62-2.91.62-2.91a1.32,1.32,0,0,1-.51,2.24,2,2,0,0,1-2.71-.65s-2.51-2.21,1.5-5.65c0,0,3.91-1.26,5.31,3.49a9.94,9.94,0,0,1-3.3,7.88c-3.79,3.42-9.69-1.07-9.69-1.07a8.92,8.92,0,0,1-3.27-4.24c-.85-2.68-1.49-2.58-1.87-6.41S71.74,77,71.74,77Z"/><path class="cls-13" d="M14,132s31.36,20,69,0C83,132,50.59,150,14,132Z"/><path class="cls-14" d="M56.56,71.09s-1.26,2.46.26,2.29-.26-2.29-.26-2.29Z"/></symbol></defs><title>prinsesseTyk</title><g id="Layer_2" data-name="Layer 2"><g id="Layer_1-2" data-name="Layer 1"><use width="100" height="200" xlink:href="#prinsessetyd"/></g></g></svg>
