<svg id="Lag_1" data-name="Lag 1" xmlns="http://www.w3.org/2000/svg" width="541" height="860.12" viewBox="0 0 541 860.12"><defs><style>.cls-1{fill:#f0add5;}.cls-2,.cls-9{fill:#f2b9ca;}.cls-3{fill:#92d3f3;}.cls-4{fill:#fce5cd;}.cls-5{fill:#f49da7;}.cls-6{fill:#020202;}.cls-7{fill:#050505;}.cls-8{fill:#f9e208;}.cls-9{stroke:#f2b9ca;stroke-miterlimit:10;}.cls-10{fill:#fff;}</style></defs><title>prinsessen</title><polygon class="cls-1" points="214.5 5.67 109.5 211.66 291.5 211.66 214.5 5.67"/><polygon class="cls-2" points="121 348.17 11 564.16 48 579.16 131 357.17 121 348.17"/><polygon class="cls-2" points="288 341.17 393 559.16 353 575.16 281 350.17 288 341.17"/><path class="cls-1" d="M580,385s75.17,62.07,150-7l86,267-337,8Z" transform="translate(-449 -27.84)"/><path class="cls-3" d="M663,34s78-37,111,71C774,105,751,2,663,34Z" transform="translate(-449 -27.84)"/><polygon class="cls-4" points="95.49 623.61 138 827.16 163.5 622 95.49 623.61"/><polygon class="cls-4" points="260.98 619.68 326.5 618.13 302 824.16 260.98 619.68"/><path class="cls-3" d="M479,653s-15,16,0,21,22.5-21,22.5-21-7.5,21,3.5,19,19-12,19-12,1,12,8,12,16-12,16-12,3,18,14,10,12-11,12-11,0,15,8,11,15-12,15-12,0,14,9,13,12-11,12-11,0,10,8,11,15-14,15-14,1,15,9,13,16-14,16-14,3,10,8,11,14-9,14-9,7,11,13,10,13-13,13-13,3,15,12,11,13-13,13-13,4,15,11,11,13-11,13-11,2,14,11,11a20.18,20.18,0,0,0,12-11s3,15,9,11,9-14,9-14,1,14,12,12,0-17,0-17Z" transform="translate(-449 -27.84)"/><path class="cls-4" d="M559,239s-52,76,21,146c0,0,100,78,169-35,0,0,29-48-9-111Z" transform="translate(-449 -27.84)"/><path class="cls-4" d="M802,603l40-16s23,38,4,53c0,0-21,11-30-20C816,620,807,636,802,603Z" transform="translate(-449 -27.84)"/><path class="cls-5" d="M588,301.5a18.39,18.39,0,0,1-14.37,18.12A17.61,17.61,0,0,1,570,320a18.51,18.51,0,1,1,18-18.5Z" transform="translate(-449 -27.84)"/><circle class="cls-6" cx="176.25" cy="278.41" r="9.25"/><circle class="cls-5" cx="281" cy="272.91" r="18.96"/><ellipse class="cls-5" cx="558.55" cy="868.27" rx="37.17" ry="15.7" transform="translate(-718.97 224.46) rotate(-20.62)"/><ellipse class="cls-5" cx="775.55" cy="864.27" rx="15.7" ry="37.17" transform="translate(-712.41 1355.1) rotate(-74.63)"/><path class="cls-4" d="M496,607.22,459.51,592s-21,36.14-3.65,50.41c0,0,19.16,10.46,27.37-19C483.23,623.39,491.44,638.6,496,607.22Z" transform="translate(-449 -27.84)"/><circle class="cls-6" cx="229.25" cy="278.41" r="9.25"/><path class="cls-6" d="M672.71,304.39a1.5,1.5,0,0,0,0-3,1.5,1.5,0,0,0,0,3Z" transform="translate(-449 -27.84)"/><path class="cls-6" d="M673,305.38a1.5,1.5,0,0,0,0-3,1.5,1.5,0,0,0,0,3Z" transform="translate(-449 -27.84)"/><path class="cls-3" d="M460.5,591.5s-7,3.73-3,8.39,10-4.66,10-4.66-6,6.52-1,8.39,8-5.7,8-5.7-4,6.64,1,8.5,7.28-5.4,7.28-5.4-4.28,6.33-.28,9.13,8-5.59,8-5.59-3,7.45,2,7.45,4.5-6.06,4.5-6.06Z" transform="translate(-449 -27.84)"/><path class="cls-3" d="M841.44,586.5s7.56,3.91,3.24,8.8-10.8-4.89-10.8-4.89,6.48,6.84,1.08,8.8-8.6-6-8.6-6,4.28,7-1.12,8.91-7.87-5.66-7.87-5.66,4.63,6.64.31,9.57-8.64-5.86-8.64-5.86,3.24,7.82-2.16,7.82-4.86-6.35-4.86-6.35Z" transform="translate(-449 -27.84)"/><path class="cls-3" d="M774,104s-4,92,61,117,57,145,57,145,19,67,45,70,53-60,53-60-55-29-67-72-41-113-88-128S774,104,774,104Z" transform="translate(-449 -27.84)"/><path class="cls-7" d="M574,320s17,66,79,65,77-65,77-65-18,61-77,62S574,320,574,320Z" transform="translate(-449 -27.84)"/><path class="cls-8" d="M549.48,258S511,320,482,291c0,0-18-24,18-33,0,0,15-1,11,14s-14,7-14,7,10,15,16-7-20-14-20-14-24,5-16,29,38,10,38,10a112.55,112.55,0,0,0,16-11c7-6,15.47-19.51,15.47-19.51Z" transform="translate(-449 -27.84)"/><path class="cls-8" d="M542.16,285.52S537,358,496,365s-31-38-31-38,20-28,32,0c0,0,6,19-10,15,0,0,10,9,14-6s-15-24-15-24-13-6-22,11,2,36,2,36,7,12,27,10,27-13,27-13,12-17,14-23,8.16-26.75,8.16-26.75Z" transform="translate(-449 -27.84)"/><path class="cls-8" d="M544.76,319S556,375,553,394s-9,35-15,39-32,30-52,11-18-36-18-36,3-21,21-20,18,21,18,21-1,19-15,14-5-13-5-13-5,7,4,10,12-5,12-5,10-12-11-25c0,0-19-3-22,20a46.32,46.32,0,0,0,21,34c20,13,44-12,44-12s10-9,12-22,5-13,4-31-7-53-7-53Z" transform="translate(-449 -27.84)"/><path class="cls-8" d="M740.37,239s38.48,62,67.48,33c0,0,18-24-18-33,0,0-15-1-11,14s14,7,14,7-10,15-16-7,20-14,20-14,24,5,16,29-38,10-38,10a112.55,112.55,0,0,1-16-11c-7-6-15.47-19.51-15.47-19.51Z" transform="translate(-449 -27.84)"/><path class="cls-8" d="M758.08,286.44s6.76,72.35,47.9,78.44,30.15-38.68,30.15-38.68-20.61-27.55-32,.71c0,0-5.58,19.13,10.33,14.78,0,0-9.8,9.22-14.13-5.69s14.47-24.33,14.47-24.33,12.86-6.29,22.24,10.51-1.2,36-1.2,36-6.73,12.15-26.77,10.59-27.28-12.4-27.28-12.4-12.37-16.73-14.51-22.68-8.75-26.56-8.75-26.56Z" transform="translate(-449 -27.84)"/><path class="cls-8" d="M754.84,333.11s-2.38,57.07,3.54,75.37,14.34,33.17,20.89,36.19,36.28,24.65,53.08,2.77,12.17-38.36,12.17-38.36-6.23-20.28-23.86-16.48-14.51,23.55-14.51,23.55,3.95,18.61,17,11.49S826.07,414,826.07,414s6,6.14-2.39,10.5S811,421.43,811,421.43s-11.75-10.3,7-26.41c0,0,18.3-5.92,24.85,16.33a46.32,46.32,0,0,1-15.45,36.86c-17.73,16-45.33-5-45.33-5s-11.28-7.33-15.28-19.86-7-12.06-8.78-30-1.34-53.44-1.34-53.44Z" transform="translate(-449 -27.84)"/><path class="cls-9" d="M561,237s12.26-1,22.06-9,15.69-17,16.67-20,2-15-4.9-13a13.45,13.45,0,0,0-8.83,8s-6.86,14-2.94,21a68,68,0,0,0,10,13,27,27,0,0,0,24.35-6C629.15,221,637,212,636,205c0,0,2.94-15-2-16s-5.88,4-5.88,4-3.92,4-2.94,17,2,16,2,16,3.92,11,13.73,11,20.59-4,20.59-4,9.81-8,12.75-13,7.84-16,5.88-23-7.84-8-7.84-8-3.92,0-4.9,3-3.92,11-2,16,1,11,9.81,18a81.74,81.74,0,0,0,19.61,11s17.65,0,23.53-6,8.83-16,3.92-21-7.84,0-7.84,0-2.94,7,0,12,9.48,17.58,17.49,15.79S736,237,736,237s-11-2-17.24-10.77a22,22,0,0,1-3.36-7.23s-1-10,2-9,4.9,3,5.88,7-7.84,14-7.84,14-24.52,13-41.19-9-2.94-30-2.94-30,5.88-2,6.86,9-10.79,23-10.79,23-8.83,13-27.46,10-11.77-37-11.77-37,6.86-14,5.88,1-4.9,18-4.9,18l-14.71,14s-10.79,16-27.46-3a26,26,0,0,1,3.92-27s7.84-7,5.88,6-19.61,22-19.61,22Z" transform="translate(-449 -27.84)"/><path class="cls-7" d="M681.87,299s13.37-4.29,8.14-11.55c0,0,3.28,1.49,2.77,4.62s-5.12,5.9-5.12,5.9l-4,2.42Z" transform="translate(-449 -27.84)"/><path class="cls-7" d="M619,300.41s-13.76-2.83-9.34-10.61c0,0-3.1,1.84-2.26,4.89S613.1,300,613.1,300l4.22,2Z" transform="translate(-449 -27.84)"/><path class="cls-7" d="M685.36,301s12.11,1,10.31-6.57c0,0,2.14,2.27.71,4.61s-6,3-6,3l-4,.63Z" transform="translate(-449 -27.84)"/><path class="cls-7" d="M617.68,302.63s-13.08,1.21-11-6.28c0,0-2.35,2.29-.86,4.57s6.44,2.87,6.44,2.87l4.28.53Z" transform="translate(-449 -27.84)"/><circle class="cls-10" cx="174" cy="277.16" r="1.5"/><circle class="cls-10" cx="675.5" cy="304.5" r="1.5" transform="translate(-158.74 909.6) rotate(-82.94)"/></svg>
