<svg xmlns="http://www.w3.org/2000/svg" xmlns:xlink="http://www.w3.org/1999/xlink" viewBox="0 0 289 202"><defs><style>.cls-1{fill:none;}.cls-2{fill:#fce5cd;}.cls-3{fill:#92d3f3;}.cls-4{fill:#f0add5;}.cls-5{fill:#f9e208;}.cls-6{fill:#f49da7;}.cls-7{fill:#020202;}.cls-8,.cls-9{fill:#f2b9ca;}.cls-8{stroke:#f2b9ca;stroke-miterlimit:10;}.cls-10{fill:#fff;}.cls-11{fill:#050505;}</style><symbol id="p01" data-name="p01" viewBox="0 0 100 200"><g id="background"><rect class="cls-1" width="100" height="200"/></g><path class="cls-2" d="M36,54.57S24.51,71.29,40.57,86.68c0,0,22,17.16,37.18-7.7,0,0,6.37-10.55-2-24.41Z"/><path class="cls-3" d="M35,25S41,45.27,29,54.28s-3.49,35.35-3.49,35.35-.09,16-5.29,18S5.91,97,5.91,97s9.69-9.37,9.71-19.59,2-27.37,10.85-33.2S35,25,35,25Z"/><polygon class="cls-4" points="59.16 9.26 36.06 54.57 76.1 54.57 59.16 9.26"/><path class="cls-5" d="M36.06,54.56s-8.47,13.65-14.85,7.27c0,0-3.95-5.28,4-7.26,0,0,3.3-.22,2.42,3.08s-3.08,1.54-3.08,1.54,2.2,3.3,3.52-1.54-4.4-3.08-4.4-3.08-5.27,1.1-3.52,6.38,8.36,2.2,8.36,2.2A24.76,24.76,0,0,0,32,60.73a24.2,24.2,0,0,0,3.41-4.29Z"/><path class="cls-5" d="M33.7,75.69S36.17,88,35.51,92.18s-2,7.7-3.3,8.58-7,6.6-11.44,2.42-3.95-7.92-3.95-7.92.66-4.62,4.61-4.4,4,4.62,4,4.62-.22,4.18-3.3,3.08S21,95.7,21,95.7a1.36,1.36,0,0,0,.88,2.2,2,2,0,0,0,2.64-1.1s2.2-2.64-2.42-5.5c0,0-4.17-.66-4.83,4.4a10.2,10.2,0,0,0,4.61,7.48c4.4,2.86,9.68-2.64,9.68-2.64a9.13,9.13,0,0,0,2.64-4.84c.44-2.86,1.1-2.86.88-6.82s-1.54-11.66-1.54-11.66Z"/><path class="cls-5" d="M42.88,54.78S34.41,68.43,28,62.05c0,0-4-5.28,4-7.26,0,0,3.3-.22,2.42,3.08s-3.08,1.54-3.08,1.54,2.2,3.3,3.52-1.54-4.4-3.08-4.4-3.08-5.28,1.1-3.52,6.38,8.36,2.2,8.36,2.2A24.76,24.76,0,0,0,38.81,61a24.2,24.2,0,0,0,3.41-4.29Z"/><path class="cls-5" d="M41,59.3s-1.13,16-10.15,17.48S24,68.43,24,68.43s4.4-6.16,7,0c0,0,1.32,4.18-2.2,3.3,0,0,2.2,2,3.08-1.32s-3.3-5.28-3.3-5.28-2.86-1.32-4.84,2.42.44,7.92.44,7.92,1.54,2.63,5.94,2.19,5.94-2.85,5.94-2.85a36.62,36.62,0,0,0,3.08-5.06c.44-1.32,1.79-5.89,1.79-5.89Z"/><path class="cls-5" d="M38,71.85s-4.34,11.79-7.08,15-5.72,5.53-7.3,5.59-9.46,1.94-11-3.92.77-8.82.77-8.82,3-3.59,6.24-1.34,1,6,1,6-2.38,3.45-4.43.9.56-3,.56-3a1.35,1.35,0,0,0-.4,2.33,2,2,0,0,0,2.83.45s3.25-1.1.81-6c0,0-3.22-2.74-6.42,1.22a10.19,10.19,0,0,0,0,8.79c2.25,4.74,9.63,2.82,9.63,2.82a9.14,9.14,0,0,0,4.78-2.75c1.87-2.2,2.43-1.86,4.32-5.35S37,73.07,37,73.07Z"/><path class="cls-6" d="M49.81,68.32a4,4,0,0,1-3.16,4,3.57,3.57,0,0,1-.8.09,4.07,4.07,0,1,1,4-4.07Z"/><circle class="cls-7" cx="67.9" cy="68.48" r="2.03"/><circle class="cls-7" cx="76.04" cy="68.26" r="2.03"/><path class="cls-8" d="M36.83,54.35a9.83,9.83,0,0,0,4.86-2A13,13,0,0,0,45.35,48c.22-.66.43-3.3-1.08-2.86a3,3,0,0,0-1.94,1.76s-1.51,3.08-.64,4.62a14.87,14.87,0,0,0,2.19,2.86A5.93,5.93,0,0,0,49.23,53c2.59-2.2,4.32-4.18,4.1-5.72,0,0,.65-3.3-.43-3.52a1.08,1.08,0,0,0-1.29.88s-.87.88-.65,3.74a20.7,20.7,0,0,0,.43,3.52s.86,2.42,3,2.42a15.28,15.28,0,0,0,4.53-.88,16.56,16.56,0,0,0,2.81-2.86c.64-1.1,1.72-3.52,1.29-5.06a2.36,2.36,0,0,0-1.73-1.76s-.86,0-1.07.66-.87,2.42-.44,3.52.22,2.42,2.16,4a18,18,0,0,0,4.31,2.42s3.89,0,5.18-1.32,1.94-3.52.86-4.62-1.72,0-1.72,0a3.37,3.37,0,0,0,0,2.64c.65,1.1,2.08,3.87,3.85,3.47s.89-.17.89-.17A6.56,6.56,0,0,1,71.54,52a5.19,5.19,0,0,1-.74-1.59s-.21-2.2.44-2A1.93,1.93,0,0,1,72.53,50c.22.88-1.73,3.08-1.73,3.08s-5.39,2.86-9-2-.65-6.6-.65-6.6,1.29-.44,1.51,2-2.37,5.06-2.37,5.06a6.14,6.14,0,0,1-6,2.2c-4.1-.66-2.59-8.14-2.59-8.14s1.51-3.08,1.29.22-1.08,4-1.08,4l-3.23,3.08s-2.37,3.52-6-.66a5.72,5.72,0,0,1,.86-5.94s1.73-1.54,1.3,1.32-4.32,4.84-4.32,4.84Z"/><polygon class="cls-2" points="59.26 144.21 73.68 143.87 68.29 189.19 59.26 144.21"/><polygon class="cls-2" points="36.83 143.33 51.24 142.99 45.85 188.31 36.83 143.33"/><path class="cls-4" d="M40.38,86.06s16.31,13.92,33-1l17.95,59-74.14.55Z"/><path class="cls-3" d="M17.51,144.17s-3.36,3.44-.1,4.62,5-4.51,5-4.51-1.75,4.58.68,4.19a8,8,0,0,0,4.22-2.55s.16,2.65,1.7,2.68S32.62,146,32.62,146s.57,4,3,2.26,2.69-2.36,2.69-2.36-.08,3.3,1.7,2.46a12.88,12.88,0,0,0,3.35-2.57s-.07,3.08,1.91,2.91S48,146.37,48,146.37s0,2.2,1.71,2.46,3.35-3,3.35-3,.15,3.31,1.92,2.91,3.57-3,3.57-3,.61,2.22,1.71,2.46,3.11-1.91,3.11-1.91,1.48,2.45,2.8,2.26,2.92-2.79,2.92-2.79.58,3.31,2.58,2.47a6.18,6.18,0,0,0,2.91-2.79s.81,3.31,2.36,2.47a12.81,12.81,0,0,0,2.91-2.36s.37,3.09,2.36,2.47a4.39,4.39,0,0,0,2.68-2.36s.59,3.31,1.92,2.46a6.56,6.56,0,0,0,2-3s.15,3.08,2.57,2.69.08-3.73.08-3.73Z"/><polygon class="cls-9" points="41.75 87.86 31.26 141.89 41.18 141.91 44.79 88.89 41.75 87.86"/><path class="cls-2" d="M40.41,141.07l-8.68-.59s-1.82,9,2.8,10.75c0,0,4.73.83,4.36-5.89C38.89,145.34,41.68,147.93,40.41,141.07Z"/><path class="cls-3" d="M31.36,139.64s-1.36,1.48,0,2.25,2-1.94,2-1.94-.89,2.05.46,2.08,1.42-2,1.42-2-.39,1.92,1,1.94,1.29-1.89,1.29-1.89-.5,1.87.69,2.2,1.44-2,1.44-2-.09,2,1.1,1.62.57-1.83.57-1.83Z"/><circle class="cls-10" cx="68.84" cy="67.66" r="0.33"/><circle class="cls-10" cx="76.98" cy="67.22" r="0.33"/><ellipse class="cls-6" cx="51.69" cy="188.37" rx="3.45" ry="8.18" transform="translate(-143.64 188.27) rotate(-74.63)"/><ellipse class="cls-6" cx="73.69" cy="188.37" rx="3.45" ry="8.18" transform="matrix(0.27, -0.96, 0.96, 0.27, -127.47, 209.48)"/><path d="M45.85,72.39s5.72,12.53,21.56,10.33c0,0,7.48-1.1,9.9-3.52a29.18,29.18,0,0,1-10.12,3.08c-5.28.44-7.7.22-12.54-1.76S45.85,72.39,45.85,72.39Z"/><path class="cls-11" d="M66.52,67.2s-3-.63-2-2.34a1,1,0,0,0-.5,1.08c.18.67,1.26,1.17,1.26,1.17l.93.43Z"/><path class="cls-11" d="M64,71.24"/><path class="cls-11" d="M62.72,69.6"/><path class="cls-11" d="M66.09,67.91s-3.08.23-2.62-1.68a1,1,0,0,0-.18,1.17c.36.59,1.53.78,1.53.78l1,.16Z"/><path class="cls-11" d="M77.27,66.65s2.41-.87,1.4-2.56a1.18,1.18,0,0,1,.54,1.07,2.27,2.27,0,0,1-.89,1.3l-.71.52Z"/><path class="cls-11" d="M77.61,67.31s2.25.09,2-1.6a1,1,0,0,1,.09,1,2,2,0,0,1-1.16.75l-.75.18Z"/><path class="cls-3" d="M59.21,9.37S42,1.38,34.93,25.2C34.93,25.2,39.79,2.5,59.21,9.37Z"/><path class="cls-5" d="M40.9,61.82s-8.47,13.65-14.85,7.27c0,0-4-5.28,4-7.26,0,0,3.3-.22,2.42,3.08s-3.08,1.54-3.08,1.54,2.2,3.3,3.52-1.54-4.4-3.08-4.4-3.08-5.28,1.1-3.52,6.38,8.36,2.2,8.36,2.2A24.76,24.76,0,0,0,36.83,68a24.2,24.2,0,0,0,3.41-4.29Z"/><path class="cls-5" d="M35.07,78.66S33.94,94.6,24.92,96.14s-6.82-8.36-6.82-8.36,4.4-6.16,7,0c0,0,1.32,4.18-2.2,3.3,0,0,2.2,2,3.08-1.32s-3.3-5.28-3.3-5.28-2.86-1.32-4.84,2.42.44,7.92.44,7.92,1.54,2.64,5.94,2.2,5.94-2.86,5.94-2.86a36.62,36.62,0,0,0,3.08-5.06c.44-1.32,1.79-5.88,1.79-5.88Z"/></symbol><symbol id="p02" data-name="p02" viewBox="0 0 100 200"><rect id="background-2" data-name="background" class="cls-1" width="100" height="200"/><path class="cls-2" d="M80.1,186.21l8.14-22L81,162.45Z"/><path class="cls-2" d="M65.22,145.89l15.33,15.92,6.28-4-9.65-19.95Z"/><path class="cls-2" d="M41,53.57S29.51,70.29,45.57,85.68c0,0,22,17.16,37.18-7.7,0,0,6.37-10.55-2-24.41Z"/><path class="cls-3" d="M40.19,23.47s4,20.82-8.83,28.57-7,34.82-7,34.82-1.71,15.86-7.08,17.37S4,92.25,4,92.25,14.62,83.9,15.67,73.73s4.76-27,14.14-31.93S40.19,23.47,40.19,23.47Z"/><polygon class="cls-4" points="64.16 8.26 41.06 53.57 81.1 53.57 64.16 8.26"/><path class="cls-5" d="M41.06,53.56s-8.47,13.65-14.85,7.27c0,0-3.95-5.28,4-7.26,0,0,3.3-.22,2.42,3.08s-3.08,1.54-3.08,1.54,2.2,3.3,3.52-1.54-4.4-3.08-4.4-3.08-5.27,1.1-3.52,6.38,8.36,2.2,8.36,2.2A24.76,24.76,0,0,0,37,59.73a24.2,24.2,0,0,0,3.41-4.29Z"/><path class="cls-5" d="M38.7,74.69S41.17,87,40.51,91.18s-2,7.7-3.3,8.58-7,6.6-11.44,2.42-3.95-7.92-3.95-7.92.66-4.62,4.61-4.4,4,4.62,4,4.62-.22,4.18-3.3,3.08S26,94.7,26,94.7a1.36,1.36,0,0,0,.88,2.2,2,2,0,0,0,2.64-1.1s2.2-2.64-2.42-5.5c0,0-4.17-.66-4.83,4.4a10.2,10.2,0,0,0,4.61,7.48c4.4,2.86,9.68-2.64,9.68-2.64a9.13,9.13,0,0,0,2.64-4.84c.44-2.86,1.1-2.86.88-6.82s-1.54-11.66-1.54-11.66Z"/><path class="cls-5" d="M47.88,53.78S39.41,67.43,33,61.05c0,0-4-5.28,4-7.26,0,0,3.3-.22,2.42,3.08s-3.08,1.54-3.08,1.54,2.2,3.3,3.52-1.54-4.4-3.08-4.4-3.08-5.28,1.1-3.52,6.38,8.36,2.2,8.36,2.2A24.76,24.76,0,0,0,43.81,60a24.2,24.2,0,0,0,3.41-4.29Z"/><path class="cls-5" d="M46,58.3s-1.13,16-10.15,17.48S29,67.43,29,67.43s4.4-6.16,7,0c0,0,1.32,4.18-2.2,3.3,0,0,2.2,2,3.08-1.32s-3.3-5.28-3.3-5.28-2.86-1.32-4.84,2.42.44,7.92.44,7.92,1.54,2.63,5.94,2.19,5.94-2.85,5.94-2.85a36.62,36.62,0,0,0,3.08-5.06c.44-1.32,1.79-5.89,1.79-5.89Z"/><path class="cls-5" d="M43,70.85s-4.34,11.79-7.08,15-5.72,5.53-7.3,5.59-9.46,1.94-11-3.92.77-8.82.77-8.82,3-3.59,6.24-1.34,1,6,1,6-2.38,3.45-4.43.9.56-3,.56-3a1.35,1.35,0,0,0-.4,2.33,2,2,0,0,0,2.83.45s3.25-1.1.81-6c0,0-3.22-2.74-6.42,1.22a10.19,10.19,0,0,0,0,8.79c2.25,4.74,9.63,2.82,9.63,2.82a9.14,9.14,0,0,0,4.78-2.75c1.87-2.2,2.43-1.86,4.32-5.35S42,72.07,42,72.07Z"/><path class="cls-6" d="M54.81,67.32a4,4,0,0,1-3.16,4,3.57,3.57,0,0,1-.8.09,4.07,4.07,0,1,1,4-4.07Z"/><circle class="cls-7" cx="72.9" cy="67.48" r="2.03"/><circle class="cls-7" cx="81.04" cy="67.26" r="2.03"/><path class="cls-8" d="M41.83,53.35a9.83,9.83,0,0,0,4.86-2A13,13,0,0,0,50.35,47c.22-.66.43-3.3-1.08-2.86a3,3,0,0,0-1.94,1.76s-1.51,3.08-.64,4.62a14.87,14.87,0,0,0,2.19,2.86A5.93,5.93,0,0,0,54.23,52c2.59-2.2,4.32-4.18,4.1-5.72,0,0,.65-3.3-.43-3.52a1.08,1.08,0,0,0-1.29.88s-.87.88-.65,3.74a20.7,20.7,0,0,0,.43,3.52s.86,2.42,3,2.42a15.28,15.28,0,0,0,4.53-.88,16.56,16.56,0,0,0,2.81-2.86c.64-1.1,1.72-3.52,1.29-5.06a2.36,2.36,0,0,0-1.73-1.76s-.86,0-1.07.66-.87,2.42-.44,3.52.22,2.42,2.16,4a18,18,0,0,0,4.31,2.42s3.89,0,5.18-1.32,1.94-3.52.86-4.62-1.72,0-1.72,0a3.37,3.37,0,0,0,0,2.64c.65,1.1,2.08,3.87,3.85,3.47s.89-.17.89-.17A6.56,6.56,0,0,1,76.54,51a5.19,5.19,0,0,1-.74-1.59s-.21-2.2.44-2A1.93,1.93,0,0,1,77.53,49c.22.88-1.73,3.08-1.73,3.08s-5.39,2.86-9-2-.65-6.6-.65-6.6,1.29-.44,1.51,2-2.37,5.06-2.37,5.06a6.14,6.14,0,0,1-6,2.2c-4.1-.66-2.59-8.14-2.59-8.14s1.51-3.08,1.29.22-1.08,4-1.08,4l-3.23,3.08s-2.37,3.52-6-.66a5.72,5.72,0,0,1,.86-5.94s1.73-1.54,1.3,1.32-4.32,4.84-4.32,4.84Z"/><path class="cls-2" d="M21.45,172.9l22.65-6.16-2.79-6.91Z"/><path class="cls-2" d="M49.56,138.13l-7.78,20.69,6.32,3.94L62,145.46Z"/><path class="cls-4" d="M45.38,85.06s16.31,13.92,33-1l17.95,59-74.14.55Z"/><path class="cls-3" d="M22.51,143.17s-3.36,3.44-.1,4.62,5-4.51,5-4.51-1.75,4.58.68,4.19a8,8,0,0,0,4.22-2.55s.16,2.65,1.7,2.68S37.62,145,37.62,145s.57,4,3,2.26,2.69-2.36,2.69-2.36-.08,3.3,1.7,2.46a12.88,12.88,0,0,0,3.35-2.57s-.07,3.08,1.91,2.91S53,145.37,53,145.37s0,2.2,1.71,2.46,3.35-3,3.35-3,.15,3.31,1.92,2.91,3.57-3,3.57-3,.61,2.22,1.71,2.46,3.11-1.91,3.11-1.91,1.48,2.45,2.8,2.26,2.92-2.79,2.92-2.79.58,3.31,2.58,2.47a6.18,6.18,0,0,0,2.91-2.79s.81,3.31,2.36,2.47a12.81,12.81,0,0,0,2.91-2.36s.37,3.09,2.36,2.47a4.39,4.39,0,0,0,2.68-2.36s.59,3.31,1.92,2.46a6.56,6.56,0,0,0,2-3s.15,3.08,2.57,2.69.08-3.73.08-3.73Z"/><polygon class="cls-9" points="46.75 86.86 36.26 140.89 46.18 140.91 49.79 87.89 46.75 86.86"/><path class="cls-2" d="M45.41,140.07l-8.68-.59s-1.82,9,2.8,10.75c0,0,4.73.83,4.36-5.89C43.89,144.34,46.68,146.93,45.41,140.07Z"/><path class="cls-3" d="M36.36,138.64s-1.36,1.48,0,2.25,2-1.94,2-1.94-.89,2.05.46,2.08,1.42-2,1.42-2-.39,1.92,1,1.94,1.29-1.89,1.29-1.89-.5,1.87.69,2.2,1.44-2,1.44-2-.09,2,1.1,1.62.57-1.83.57-1.83Z"/><circle class="cls-10" cx="73.84" cy="66.66" r="0.33"/><circle class="cls-10" cx="81.98" cy="66.22" r="0.33"/><ellipse class="cls-6" cx="24.69" cy="178.37" rx="3.45" ry="8.18" transform="translate(-98.12 46.68) rotate(-35.12)"/><ellipse class="cls-6" cx="84.69" cy="188.37" rx="3.45" ry="8.18" transform="matrix(0.27, -0.96, 0.96, 0.27, -119.39, 220.08)"/><path d="M50.85,71.39s5.72,12.53,21.56,10.33c0,0,7.48-1.1,9.9-3.52a29.18,29.18,0,0,1-10.12,3.08c-5.28.44-7.7.22-12.54-1.76S50.85,71.39,50.85,71.39Z"/><path class="cls-11" d="M71.52,66.2s-3-.63-2-2.34a1,1,0,0,0-.5,1.08c.18.67,1.26,1.17,1.26,1.17l.93.43Z"/><path class="cls-11" d="M69,70.24"/><path class="cls-11" d="M67.72,68.6"/><path class="cls-11" d="M71.09,66.91s-3.08.23-2.62-1.68a1,1,0,0,0-.18,1.17c.36.59,1.53.78,1.53.78l1,.16Z"/><path class="cls-11" d="M82.27,65.65s2.41-.87,1.4-2.56a1.18,1.18,0,0,1,.54,1.07,2.27,2.27,0,0,1-.89,1.3l-.71.52Z"/><path class="cls-11" d="M82.61,66.31s2.25.09,2-1.6a1,1,0,0,1,.09,1,2,2,0,0,1-1.16.75l-.75.18Z"/><path class="cls-3" d="M64.21,8.37S47,.38,39.93,24.2C39.93,24.2,44.79,1.5,64.21,8.37Z"/><path class="cls-5" d="M45.9,60.82s-8.47,13.65-14.85,7.27c0,0-4-5.28,4-7.26,0,0,3.3-.22,2.42,3.08s-3.08,1.54-3.08,1.54,2.2,3.3,3.52-1.54-4.4-3.08-4.4-3.08-5.28,1.1-3.52,6.38,8.36,2.2,8.36,2.2A24.76,24.76,0,0,0,41.83,67a24.2,24.2,0,0,0,3.41-4.29Z"/><path class="cls-5" d="M40.07,77.66S38.94,93.6,29.92,95.14s-6.82-8.36-6.82-8.36,4.4-6.16,7,0c0,0,1.32,4.18-2.2,3.3,0,0,2.2,2,3.08-1.32s-3.3-5.28-3.3-5.28-2.86-1.32-4.84,2.42.44,7.92.44,7.92,1.54,2.64,5.94,2.2,5.94-2.86,5.94-2.86a36.62,36.62,0,0,0,3.08-5.06c.44-1.32,1.79-5.88,1.79-5.88Z"/></symbol><symbol id="p03" data-name="p03" viewBox="0 0 100 200"><rect id="background-3" data-name="background" class="cls-1" width="100" height="200"/><path class="cls-2" d="M60.51,186.87,75.25,168.6l-6.31-3.95Z"/><path class="cls-2" d="M63.2,142.78l5.64,21.37,7.43-.45,1.3-22.13Z"/><path class="cls-2" d="M40,52.57S28.51,69.29,44.57,84.68c0,0,22,17.16,37.18-7.7,0,0,6.37-10.55-2-24.41Z"/><path class="cls-3" d="M39,22.65s5.07,20.58-7.35,29-5.22,35.13-5.22,35.13-.89,15.92-6.18,17.71S6.48,93.2,6.48,93.2s10.14-8.89,10.67-19.1,3.36-27.23,12.47-32.61S39,22.65,39,22.65Z"/><polygon class="cls-4" points="63.16 7.26 40.06 52.57 80.1 52.57 63.16 7.26"/><path class="cls-5" d="M40.06,52.56s-8.47,13.65-14.85,7.27c0,0-3.95-5.28,4-7.26,0,0,3.3-.22,2.42,3.08s-3.08,1.54-3.08,1.54,2.2,3.3,3.52-1.54-4.4-3.08-4.4-3.08-5.27,1.1-3.52,6.38,8.36,2.2,8.36,2.2A24.76,24.76,0,0,0,36,58.73a24.2,24.2,0,0,0,3.41-4.29Z"/><path class="cls-5" d="M37.7,73.69S40.17,86,39.51,90.18s-2,7.7-3.3,8.58-7,6.6-11.44,2.42-3.95-7.92-3.95-7.92.66-4.62,4.61-4.4,4,4.62,4,4.62-.22,4.18-3.3,3.08S25,93.7,25,93.7a1.36,1.36,0,0,0,.88,2.2,2,2,0,0,0,2.64-1.1s2.2-2.64-2.42-5.5c0,0-4.17-.66-4.83,4.4a10.2,10.2,0,0,0,4.61,7.48c4.4,2.86,9.68-2.64,9.68-2.64a9.13,9.13,0,0,0,2.64-4.84c.44-2.86,1.1-2.86.88-6.82s-1.54-11.66-1.54-11.66Z"/><path class="cls-5" d="M46.88,52.78S38.41,66.43,32,60.05c0,0-4-5.28,4-7.26,0,0,3.3-.22,2.42,3.08s-3.08,1.54-3.08,1.54,2.2,3.3,3.52-1.54-4.4-3.08-4.4-3.08-5.28,1.1-3.52,6.38,8.36,2.2,8.36,2.2A24.76,24.76,0,0,0,42.81,59a24.2,24.2,0,0,0,3.41-4.29Z"/><path class="cls-5" d="M45,57.3s-1.13,16-10.15,17.48S28,66.43,28,66.43s4.4-6.16,7,0c0,0,1.32,4.18-2.2,3.3,0,0,2.2,2,3.08-1.32s-3.3-5.28-3.3-5.28-2.86-1.32-4.84,2.42.44,7.92.44,7.92,1.54,2.63,5.94,2.19,5.94-2.85,5.94-2.85a36.62,36.62,0,0,0,3.08-5.06c.44-1.32,1.79-5.89,1.79-5.89Z"/><path class="cls-5" d="M42,69.85s-4.34,11.79-7.08,15-5.72,5.53-7.3,5.59-9.46,1.94-11-3.92.77-8.82.77-8.82,3-3.59,6.24-1.34,1,6,1,6-2.38,3.45-4.43.9.56-3,.56-3a1.35,1.35,0,0,0-.4,2.33,2,2,0,0,0,2.83.45s3.25-1.1.81-6c0,0-3.22-2.74-6.42,1.22a10.19,10.19,0,0,0,0,8.79c2.25,4.74,9.63,2.82,9.63,2.82a9.14,9.14,0,0,0,4.78-2.75c1.87-2.2,2.43-1.86,4.32-5.35S41,71.07,41,71.07Z"/><path class="cls-6" d="M53.81,66.32a4,4,0,0,1-3.16,4,3.57,3.57,0,0,1-.8.09,4.07,4.07,0,1,1,4-4.07Z"/><circle class="cls-7" cx="71.9" cy="66.48" r="2.03"/><circle class="cls-7" cx="80.04" cy="66.26" r="2.03"/><path class="cls-8" d="M40.83,52.35a9.83,9.83,0,0,0,4.86-2A13,13,0,0,0,49.35,46c.22-.66.43-3.3-1.08-2.86a3,3,0,0,0-1.94,1.76s-1.51,3.08-.64,4.62a14.87,14.87,0,0,0,2.19,2.86A5.93,5.93,0,0,0,53.23,51c2.59-2.2,4.32-4.18,4.1-5.72,0,0,.65-3.3-.43-3.52a1.08,1.08,0,0,0-1.29.88s-.87.88-.65,3.74a20.7,20.7,0,0,0,.43,3.52s.86,2.42,3,2.42a15.28,15.28,0,0,0,4.53-.88,16.56,16.56,0,0,0,2.81-2.86c.64-1.1,1.72-3.52,1.29-5.06a2.36,2.36,0,0,0-1.73-1.76s-.86,0-1.07.66-.87,2.42-.44,3.52.22,2.42,2.16,4a18,18,0,0,0,4.31,2.42s3.89,0,5.18-1.32,1.94-3.52.86-4.62-1.72,0-1.72,0a3.37,3.37,0,0,0,0,2.64c.65,1.1,2.08,3.87,3.85,3.47s.89-.17.89-.17A6.56,6.56,0,0,1,75.54,50a5.19,5.19,0,0,1-.74-1.59s-.21-2.2.44-2A1.93,1.93,0,0,1,76.53,48c.22.88-1.73,3.08-1.73,3.08s-5.39,2.86-9-2-.65-6.6-.65-6.6,1.29-.44,1.51,2-2.37,5.06-2.37,5.06a6.14,6.14,0,0,1-6,2.2c-4.1-.66-2.59-8.14-2.59-8.14s1.51-3.08,1.29.22-1.08,4-1.08,4l-3.23,3.08s-2.37,3.52-6-.66a5.72,5.72,0,0,1,.86-5.94s1.73-1.54,1.3,1.32-4.32,4.84-4.32,4.84Z"/><path class="cls-2" d="M52.19,188.34l4.09-23.11-7.44-.42Z"/><path class="cls-2" d="M45.23,142.8l3.53,21.82,7.44.28L59.65,143Z"/><path class="cls-4" d="M44.38,84.06s16.31,13.92,33-1l17.95,59-74.14.55Z"/><path class="cls-3" d="M21.51,142.17s-3.36,3.44-.1,4.62,5-4.51,5-4.51-1.75,4.58.68,4.19a8,8,0,0,0,4.22-2.55s.16,2.65,1.7,2.68S36.62,144,36.62,144s.57,4,3,2.26,2.69-2.36,2.69-2.36-.08,3.3,1.7,2.46a12.88,12.88,0,0,0,3.35-2.57s-.07,3.08,1.91,2.91S52,144.37,52,144.37s0,2.2,1.71,2.46,3.35-3,3.35-3,.15,3.31,1.92,2.91,3.57-3,3.57-3,.61,2.22,1.71,2.46,3.11-1.91,3.11-1.91,1.48,2.45,2.8,2.26,2.92-2.79,2.92-2.79.58,3.31,2.58,2.47a6.18,6.18,0,0,0,2.91-2.79s.81,3.31,2.36,2.47a12.81,12.81,0,0,0,2.91-2.36s.37,3.09,2.36,2.47a4.39,4.39,0,0,0,2.68-2.36s.59,3.31,1.92,2.46a6.56,6.56,0,0,0,2-3s.15,3.08,2.57,2.69.08-3.73.08-3.73Z"/><polygon class="cls-9" points="45.75 85.86 35.26 139.89 45.18 139.91 48.79 86.89 45.75 85.86"/><path class="cls-2" d="M44.41,139.07l-8.68-.59s-1.82,9,2.8,10.75c0,0,4.73.83,4.36-5.89C42.89,143.34,45.68,145.93,44.41,139.07Z"/><path class="cls-3" d="M35.36,137.64s-1.36,1.48,0,2.25,2-1.94,2-1.94-.89,2.05.46,2.08,1.42-2,1.42-2-.39,1.92,1,1.94,1.29-1.89,1.29-1.89-.5,1.87.69,2.2,1.44-2,1.44-2-.09,2,1.1,1.62.57-1.83.57-1.83Z"/><circle class="cls-10" cx="72.84" cy="65.66" r="0.33"/><circle class="cls-10" cx="80.98" cy="65.22" r="0.33"/><ellipse class="cls-6" cx="66.69" cy="188.37" rx="3.45" ry="8.18" transform="translate(-129.79 151.94) rotate(-60)"/><ellipse class="cls-6" cx="56.69" cy="189.37" rx="3.45" ry="8.18" transform="translate(-139.85 210.46) rotate(-79.46)"/><path d="M49.85,70.39s5.72,12.53,21.56,10.33c0,0,7.48-1.1,9.9-3.52a29.18,29.18,0,0,1-10.12,3.08c-5.28.44-7.7.22-12.54-1.76S49.85,70.39,49.85,70.39Z"/><path class="cls-11" d="M70.52,65.2s-3-.63-2-2.34a1,1,0,0,0-.5,1.08c.18.67,1.26,1.17,1.26,1.17l.93.43Z"/><path class="cls-11" d="M68,69.24"/><path class="cls-11" d="M66.72,67.6"/><path class="cls-11" d="M70.09,65.91s-3.08.23-2.62-1.68a1,1,0,0,0-.18,1.17c.36.59,1.53.78,1.53.78l1,.16Z"/><path class="cls-11" d="M81.27,64.65s2.41-.87,1.4-2.56a1.18,1.18,0,0,1,.54,1.07,2.27,2.27,0,0,1-.89,1.3l-.71.52Z"/><path class="cls-11" d="M81.61,65.31s2.25.09,2-1.6a1,1,0,0,1,.09,1,2,2,0,0,1-1.16.75l-.75.18Z"/><path class="cls-3" d="M63.21,7.37S46-.62,38.93,23.2C38.93,23.2,43.79.5,63.21,7.37Z"/><path class="cls-5" d="M44.9,59.82s-8.47,13.65-14.85,7.27c0,0-4-5.28,4-7.26,0,0,3.3-.22,2.42,3.08s-3.08,1.54-3.08,1.54,2.2,3.3,3.52-1.54-4.4-3.08-4.4-3.08-5.28,1.1-3.52,6.38,8.36,2.2,8.36,2.2A24.76,24.76,0,0,0,40.83,66a24.2,24.2,0,0,0,3.41-4.29Z"/><path class="cls-5" d="M39.07,76.66S37.94,92.6,28.92,94.14s-6.82-8.36-6.82-8.36,4.4-6.16,7,0c0,0,1.32,4.18-2.2,3.3,0,0,2.2,2,3.08-1.32s-3.3-5.28-3.3-5.28-2.86-1.32-4.84,2.42.44,7.92.44,7.92,1.54,2.64,5.94,2.2,5.94-2.86,5.94-2.86a36.62,36.62,0,0,0,3.08-5.06c.44-1.32,1.79-5.88,1.79-5.88Z"/></symbol></defs><title>Asset 2</title><g id="Layer_2" data-name="Layer 2"><g id="princess1"><use width="100" height="200" transform="matrix(-1, 0, 0, 1, 289, 0)" xlink:href="#p01"/><use width="100" height="200" transform="matrix(-1, 0, 0, 1, 194.5, 1)" xlink:href="#p02"/><use width="100" height="200" transform="matrix(-1, 0, 0, 1, 100, 2)" xlink:href="#p03"/></g></g></svg>
