<?xml version="1.0" standalone="no"?>
<!DOCTYPE svg PUBLIC "-//W3C//DTD SVG 20010904//EN"
 "http://www.w3.org/TR/2001/REC-SVG-20010904/DTD/svg10.dtd">
<svg version="1.0" xmlns="http://www.w3.org/2000/svg"
 width="260.000000pt" height="260.000000pt" viewBox="0 0 260.000000 260.000000"
 preserveAspectRatio="xMidYMid meet">
<metadata>
Created by potrace 1.11, written by Peter Selinger 2001-2013
</metadata>
<g transform="translate(0.000000,260.000000) scale(0.100000,-0.100000)"
fill="#000000" stroke="none">
<path d="M1635 2109 c-60 -15 -306 -76 -545 -134 -239 -58 -445 -110 -458
-115 -40 -17 -65 -90 -60 -181 l3 -78 -74 -18 c-96 -22 -105 -36 -98 -141 8
-122 58 -254 108 -285 13 -8 109 12 375 77 198 48 366 89 374 91 12 4 22 -25
50 -143 19 -81 35 -151 35 -157 0 -5 -11 -12 -25 -15 -14 -4 -24 -12 -23 -18
16 -75 15 -92 -3 -92 -49 -1 -49 1 62 -448 58 -238 110 -432 115 -432 5 0 9 3
9 8 -1 4 -47 195 -104 425 -101 411 -103 419 -82 426 36 13 207 54 210 50 2
-2 49 -193 106 -424 56 -231 104 -422 106 -424 2 -2 7 -2 10 2 6 6 -30 161
-141 607 -29 118 -56 227 -59 242 -6 25 -8 26 -38 17 -18 -5 -34 -9 -34 -9 -1
0 -7 22 -14 49 -11 48 -12 49 -41 41 -33 -10 -27 -25 -77 188 -16 67 -32 125
-35 128 -3 3 -175 -36 -383 -87 l-377 -93 -28 33 c-51 62 -95 259 -71 322 8
20 21 28 64 37 29 7 63 15 76 18 17 5 22 2 22 -13 0 -33 50 -121 86 -153 21
-18 46 -30 63 -30 30 0 1120 263 1159 280 94 41 49 350 -65 451 -41 36 -56 35
-198 -2z m192 -16 c86 -92 135 -346 77 -403 -21 -21 -1103 -292 -1164 -292
-76 0 -140 122 -147 282 -4 87 -3 98 19 130 l23 34 555 137 c305 76 568 138
583 138 18 1 37 -8 54 -26z m-402 -1119 c3 -20 5 -37 3 -39 -2 -1 -22 -7 -46
-13 -41 -10 -44 -9 -53 15 -15 40 -11 52 24 62 57 16 64 14 72 -25z"/>
<path d="M2218 1417 c-159 -39 -288 -75 -288 -80 0 -11 4 -11 237 46 l183 44
9 -36 c31 -116 53 -212 50 -214 -2 -2 -152 -39 -332 -83 -181 -43 -334 -82
-340 -86 -38 -23 24 -14 189 26 103 26 188 45 189 44 2 -2 16 -58 32 -125 l30
-122 -54 -12 c-52 -12 -71 -23 -56 -32 5 -2 87 15 183 38 96 24 175 42 176 42
10 -17 60 -253 54 -257 -4 -3 -114 -31 -244 -64 -130 -32 -236 -62 -236 -67 0
-13 16 -11 100 11 41 10 75 18 75 17 1 -1 16 -65 35 -142 31 -131 43 -165 54
-154 2 2 -11 67 -30 144 -18 77 -34 145 -34 151 0 6 83 30 185 54 102 24 191
47 197 51 22 14 0 21 -35 11 l-35 -10 -31 124 c-17 68 -31 127 -31 132 0 5 26
15 59 22 62 13 89 25 79 35 -3 3 -88 -15 -188 -40 -101 -25 -188 -44 -194 -42
-6 3 -22 49 -34 103 -12 55 -25 109 -28 120 -5 21 5 24 191 69 163 39 199 45
207 34 8 -11 9 -10 4 4 -4 12 0 17 14 17 18 0 37 17 28 25 -2 2 -37 -4 -78
-15 -41 -11 -75 -18 -76 -17 0 1 -15 57 -31 125 -22 87 -28 125 -19 128 6 2
40 10 75 18 64 15 105 37 66 35 -11 0 -149 -33 -307 -72z"/>
<path d="M515 1000 c-82 -21 -230 -57 -327 -80 -114 -27 -178 -47 -178 -55 0
-9 31 -5 113 16 61 16 119 29 127 29 12 0 23 -29 43 -112 15 -62 27 -118 27
-124 0 -6 -53 -24 -117 -39 -129 -30 -136 -32 -128 -45 3 -4 29 -2 57 6 29 7
56 10 59 6 11 -12 60 -224 55 -238 -2 -6 -22 -15 -43 -18 -40 -7 -71 -22 -63
-30 3 -2 97 18 209 45 153 37 206 46 212 37 13 -21 63 -237 56 -244 -4 -4 -95
-29 -203 -55 -108 -26 -199 -51 -202 -54 -17 -17 19 -13 128 15 67 17 124 30
125 28 1 -2 6 -21 11 -42 5 -22 14 -41 20 -43 8 -3 9 9 1 42 -6 25 -8 47 -6
50 3 2 125 33 272 68 147 35 270 67 274 70 21 21 -26 15 -191 -27 -102 -25
-190 -46 -195 -46 -4 0 -11 12 -14 28 -3 15 -17 73 -30 128 l-24 101 116 28
c109 26 141 38 130 50 -3 2 -123 -25 -268 -60 -144 -36 -268 -65 -274 -65 -11
0 -68 201 -67 237 0 7 104 37 258 74 468 113 556 137 560 149 3 8 -2 10 -14 6
-16 -4 -591 -145 -659 -161 -19 -4 -24 7 -52 120 l-30 125 31 8 c17 5 111 29
209 53 97 24 177 47 177 51 0 13 -27 8 -185 -32z"/>
</g>
</svg>
